<svg xmlns="http://www.w3.org/2000/svg" xmlns:xlink="http://www.w3.org/1999/xlink" width="553" zoomAndPan="magnify" viewBox="0 0 414.75 145.500001" height="194" preserveAspectRatio="xMidYMid meet" version="1.0"><defs><g/><clipPath id="20add0c944"><path d="M 8.488281 30 L 50.585938 30 L 50.585938 66.523438 L 8.488281 66.523438 Z M 8.488281 30 " clip-rule="nonzero"/></clipPath><clipPath id="3146974c0c"><path d="M 24 17.609375 L 33 17.609375 L 33 29 L 24 29 Z M 24 17.609375 " clip-rule="nonzero"/></clipPath><clipPath id="ca88acde49"><path d="M 8.464844 66.453125 L 50.558594 66.453125 L 50.558594 119.996094 L 8.464844 119.996094 Z M 8.464844 66.453125 " clip-rule="nonzero"/></clipPath><clipPath id="1bca1a5277"><path d="M 8.488281 82.925781 L 50.558594 82.925781 L 50.558594 127.457031 L 8.488281 127.457031 Z M 8.488281 82.925781 " clip-rule="nonzero"/></clipPath><clipPath id="18bc737e23"><path d="M 18.207031 82.925781 L 40.839844 82.925781 C 46.207031 82.925781 50.558594 87.273438 50.558594 92.640625 L 50.558594 117.675781 C 50.558594 123.042969 46.207031 127.394531 40.839844 127.394531 L 18.207031 127.394531 C 12.839844 127.394531 8.488281 123.042969 8.488281 117.675781 L 8.488281 92.640625 C 8.488281 87.273438 12.839844 82.925781 18.207031 82.925781 Z M 18.207031 82.925781 " clip-rule="nonzero"/></clipPath><clipPath id="bff2b59c74"><path d="M 8.46875 67.859375 L 42.714844 67.859375 L 42.714844 122.703125 L 8.46875 122.703125 Z M 8.46875 67.859375 " clip-rule="nonzero"/></clipPath><clipPath id="44c812c3aa"><path d="M 8.46875 68 L 23 68 L 23 79 L 8.46875 79 Z M 8.46875 68 " clip-rule="nonzero"/></clipPath></defs><g fill="#000000" fill-opacity="1"><g transform="translate(57.853134, 91.662836)"><g><path d="M 8.671875 0 L 3.9375 0 L 3.9375 -34.921875 L 28.125 -34.921875 L 28.125 -30.75 L 8.671875 -30.75 L 8.671875 -20.046875 L 25.78125 -20.046875 L 25.78125 -15.875 L 8.671875 -15.875 Z M 8.671875 0 "/></g></g></g><g fill="#000000" fill-opacity="1"><g transform="translate(86.935442, 91.662836)"><g><path d="M 18.671875 -13 C 18.359375 -12.664062 17.738281 -12.394531 16.8125 -12.1875 C 15.882812 -11.976562 14.15625 -11.707031 11.625 -11.375 C 9.75 -11.15625 8.367188 -10.695312 7.484375 -10 C 6.609375 -9.300781 6.171875 -8.382812 6.171875 -7.25 C 6.171875 -5.851562 6.539062 -4.765625 7.28125 -3.984375 C 8.03125 -3.210938 9.222656 -2.828125 10.859375 -2.828125 C 12.898438 -2.828125 14.710938 -3.40625 16.296875 -4.5625 C 17.878906 -5.726562 18.671875 -7.144531 18.671875 -8.8125 Z M 3.015625 -17.703125 C 3.109375 -20.566406 4.035156 -22.695312 5.796875 -24.09375 C 7.566406 -25.488281 10.140625 -26.1875 13.515625 -26.1875 C 16.210938 -26.1875 18.46875 -25.570312 20.28125 -24.34375 C 22.101562 -23.125 23.015625 -21.367188 23.015625 -19.078125 L 23.015625 -4.421875 C 23.015625 -3.421875 23.46875 -2.921875 24.375 -2.921875 C 24.738281 -2.921875 25.207031 -2.984375 25.78125 -3.109375 L 25.78125 0 C 25 0.3125 24.191406 0.46875 23.359375 0.46875 C 21.898438 0.46875 20.8125 0.15625 20.09375 -0.46875 C 19.382812 -1.09375 19.015625 -2.066406 18.984375 -3.390625 C 16.546875 -0.640625 13.476562 0.734375 9.78125 0.734375 C 7.375 0.734375 5.441406 0.0546875 3.984375 -1.296875 C 2.535156 -2.660156 1.8125 -4.4375 1.8125 -6.625 C 1.8125 -8.863281 2.441406 -10.671875 3.703125 -12.046875 C 4.972656 -13.421875 6.816406 -14.253906 9.234375 -14.546875 L 16.796875 -15.46875 C 18.160156 -15.675781 18.84375 -16.679688 18.84375 -18.484375 C 18.84375 -19.816406 18.347656 -20.835938 17.359375 -21.546875 C 16.367188 -22.265625 14.867188 -22.625 12.859375 -22.625 C 11.066406 -22.625 9.691406 -22.222656 8.734375 -21.421875 C 7.773438 -20.628906 7.203125 -19.390625 7.015625 -17.703125 Z M 3.015625 -17.703125 "/></g></g></g><g fill="#000000" fill-opacity="1"><g transform="translate(113.665512, 91.662836)"><g><path d="M 19.265625 -16.890625 C 18.648438 -20.515625 16.640625 -22.328125 13.234375 -22.328125 C 11.128906 -22.328125 9.429688 -21.484375 8.140625 -19.796875 C 6.859375 -18.109375 6.21875 -15.765625 6.21875 -12.765625 C 6.21875 -9.484375 6.8125 -7.03125 8 -5.40625 C 9.1875 -3.78125 10.914062 -2.96875 13.1875 -2.96875 C 14.707031 -2.96875 16.019531 -3.523438 17.125 -4.640625 C 18.238281 -5.753906 18.953125 -7.207031 19.265625 -9 L 23.40625 -9 C 22.976562 -5.851562 21.863281 -3.441406 20.0625 -1.765625 C 18.257812 -0.0976562 15.9375 0.734375 13.09375 0.734375 C 9.75 0.734375 7.003906 -0.40625 4.859375 -2.6875 C 2.722656 -4.976562 1.65625 -8.085938 1.65625 -12.015625 C 1.65625 -16.328125 2.722656 -19.765625 4.859375 -22.328125 C 7.003906 -24.898438 10.007812 -26.1875 13.875 -26.1875 C 16.695312 -26.1875 18.941406 -25.34375 20.609375 -23.65625 C 22.273438 -21.96875 23.207031 -19.710938 23.40625 -16.890625 Z M 19.265625 -16.890625 "/></g></g></g><g fill="#000000" fill-opacity="1"><g transform="translate(138.613571, 91.662836)"><g><path d="M 8.359375 -21.90625 L 8.359375 -5.34375 C 8.359375 -4.695312 8.535156 -4.203125 8.890625 -3.859375 C 9.253906 -3.515625 9.894531 -3.34375 10.8125 -3.34375 L 12.453125 -3.34375 L 12.453125 0 C 10.898438 0.21875 9.828125 0.328125 9.234375 0.328125 C 7.453125 0.328125 6.148438 -0.0976562 5.328125 -0.953125 C 4.503906 -1.804688 4.09375 -3.191406 4.09375 -5.109375 L 4.09375 -21.90625 L 0.640625 -21.90625 L 0.640625 -25.4375 L 4.09375 -25.4375 L 4.09375 -32.546875 L 8.359375 -32.546875 L 8.359375 -25.4375 L 12.453125 -25.4375 L 12.453125 -21.90625 Z M 8.359375 -21.90625 "/></g></g></g><g fill="#000000" fill-opacity="1"><g transform="translate(152.08553, 91.662836)"><g><path d="M 6.171875 -12.765625 C 6.171875 -9.921875 6.8125 -7.582031 8.09375 -5.75 C 9.382812 -3.925781 11.207031 -3.015625 13.5625 -3.015625 C 16 -3.015625 17.851562 -3.972656 19.125 -5.890625 C 20.394531 -7.804688 21.03125 -10.097656 21.03125 -12.765625 C 21.03125 -15.453125 20.394531 -17.734375 19.125 -19.609375 C 17.851562 -21.484375 16 -22.421875 13.5625 -22.421875 C 11.300781 -22.421875 9.503906 -21.535156 8.171875 -19.765625 C 6.835938 -18.003906 6.171875 -15.671875 6.171875 -12.765625 Z M 1.8125 -12.765625 C 1.8125 -16.546875 2.863281 -19.726562 4.96875 -22.3125 C 7.070312 -24.894531 9.9375 -26.1875 13.5625 -26.1875 C 17.269531 -26.1875 20.164062 -24.878906 22.25 -22.265625 C 24.34375 -19.648438 25.390625 -16.484375 25.390625 -12.765625 C 25.390625 -9.023438 24.351562 -5.835938 22.28125 -3.203125 C 20.207031 -0.578125 17.300781 0.734375 13.5625 0.734375 C 9.96875 0.734375 7.109375 -0.535156 4.984375 -3.078125 C 2.867188 -5.628906 1.8125 -8.859375 1.8125 -12.765625 Z M 1.8125 -12.765625 "/></g></g></g><g fill="#000000" fill-opacity="1"><g transform="translate(179.290801, 91.662836)"><g><path d="M 7.484375 0 L 3.203125 0 L 3.203125 -25.4375 L 7.25 -25.4375 L 7.25 -21.21875 L 7.34375 -21.21875 C 9.195312 -24.53125 11.582031 -26.1875 14.5 -26.1875 C 14.957031 -26.1875 15.328125 -26.132812 15.609375 -26.03125 L 15.609375 -21.59375 L 14.015625 -21.59375 C 12.097656 -21.59375 10.53125 -20.941406 9.3125 -19.640625 C 8.09375 -18.347656 7.484375 -16.734375 7.484375 -14.796875 Z M 7.484375 0 "/></g></g></g><g fill="#000000" fill-opacity="1"><g transform="translate(195.138765, 91.662836)"><g><path d="M 18.984375 -25.4375 L 23.640625 -25.4375 L 14.546875 -0.46875 C 14.378906 -0.03125 14.21875 0.382812 14.0625 0.78125 C 12.6875 4.457031 11.5 6.976562 10.5 8.34375 C 9.5 9.71875 7.882812 10.40625 5.65625 10.40625 C 4.476562 10.40625 3.519531 10.28125 2.78125 10.03125 L 2.78125 6.125 C 3.582031 6.414062 4.46875 6.5625 5.4375 6.5625 C 6.488281 6.5625 7.253906 6.226562 7.734375 5.5625 C 8.210938 4.90625 8.929688 3.296875 9.890625 0.734375 L 0.421875 -25.4375 L 5.25 -25.4375 L 12.0625 -4.734375 L 12.171875 -4.734375 Z M 18.984375 -25.4375 "/></g></g></g><g fill="#000000" fill-opacity="1"><g transform="translate(219.289972, 91.662836)"><g><path d="M 17.625 -18.625 C 19.476562 -18.625 20.847656 -19.054688 21.734375 -19.921875 C 22.617188 -20.785156 23.0625 -22.117188 23.0625 -23.921875 C 23.0625 -25.742188 22.554688 -27.03125 21.546875 -27.78125 C 20.546875 -28.53125 19.054688 -28.90625 17.078125 -28.90625 L 10.859375 -28.90625 L 10.859375 -18.625 Z M 10.859375 0 L 3.5625 0 L 3.5625 -34.921875 L 19.5 -34.921875 C 22.832031 -34.921875 25.472656 -33.921875 27.421875 -31.921875 C 29.378906 -29.929688 30.359375 -27.203125 30.359375 -23.734375 C 30.359375 -20.742188 29.398438 -18.140625 27.484375 -15.921875 C 25.566406 -13.703125 22.8125 -12.59375 19.21875 -12.59375 L 10.859375 -12.59375 Z M 10.859375 0 "/></g></g></g><g fill="#000000" fill-opacity="1"><g transform="translate(251.437334, 91.662836)"><g><path d="M 3.328125 -25.890625 L 9.859375 -25.890625 L 9.859375 -21.40625 L 9.953125 -21.40625 C 10.742188 -23.101562 11.703125 -24.382812 12.828125 -25.25 C 13.953125 -26.125 15.363281 -26.5625 17.0625 -26.5625 C 17.5 -26.5625 17.929688 -26.53125 18.359375 -26.46875 L 18.359375 -19.546875 C 18.046875 -19.609375 17.398438 -19.640625 16.421875 -19.640625 C 14.296875 -19.640625 12.71875 -19.128906 11.6875 -18.109375 C 10.65625 -17.085938 10.140625 -15.539062 10.140625 -13.46875 L 10.140625 0 L 3.328125 0 Z M 3.328125 -25.890625 "/></g></g></g><g fill="#000000" fill-opacity="1"><g transform="translate(270.63546, 91.662836)"><g><path d="M 10.140625 -28.953125 L 3.328125 -28.953125 L 3.328125 -35.28125 L 10.140625 -35.28125 Z M 10.140625 -25.890625 L 10.140625 0 L 3.328125 0 L 3.328125 -25.890625 Z M 10.140625 -25.890625 "/></g></g></g><g fill="#000000" fill-opacity="1"><g transform="translate(284.107418, 91.662836)"><g><path d="M 26.734375 0 L 19.90625 0 L 19.90625 -16.078125 C 19.90625 -17.585938 19.5625 -18.753906 18.875 -19.578125 C 18.195312 -20.410156 17.066406 -20.828125 15.484375 -20.828125 C 13.859375 -20.828125 12.5625 -20.289062 11.59375 -19.21875 C 10.625 -18.15625 10.140625 -16.695312 10.140625 -14.84375 L 10.140625 0 L 3.328125 0 L 3.328125 -25.890625 L 9.859375 -25.890625 L 9.859375 -22.09375 L 9.953125 -22.09375 C 11.585938 -25.070312 14.160156 -26.5625 17.671875 -26.5625 C 20.316406 -26.5625 22.488281 -25.804688 24.1875 -24.296875 C 25.882812 -22.785156 26.734375 -20.65625 26.734375 -17.90625 Z M 26.734375 0 "/></g></g></g><g fill="#000000" fill-opacity="1"><g transform="translate(313.807488, 91.662836)"><g><path d="M 10.921875 -25.890625 L 15.15625 -25.890625 L 15.15625 -21.03125 L 10.921875 -21.03125 L 10.921875 -6.515625 C 10.921875 -5.828125 11.109375 -5.378906 11.484375 -5.171875 C 11.859375 -4.972656 12.429688 -4.875 13.203125 -4.875 C 13.984375 -4.875 14.632812 -4.90625 15.15625 -4.96875 L 15.15625 0.09375 C 14.15625 0.25 12.925781 0.328125 11.46875 0.328125 C 8.78125 0.328125 6.878906 -0.078125 5.765625 -0.890625 C 4.660156 -1.703125 4.109375 -3.171875 4.109375 -5.296875 L 4.109375 -21.03125 L 0.59375 -21.03125 L 0.59375 -25.890625 L 4.109375 -25.890625 L 4.109375 -32.875 L 10.921875 -32.875 Z M 10.921875 -25.890625 "/></g></g></g><g fill="#000000" fill-opacity="1"><g transform="translate(330.154406, 91.662836)"><g><path d="M 17.796875 -17.96875 C 17.671875 -19.082031 17.257812 -19.945312 16.5625 -20.5625 C 15.863281 -21.1875 14.753906 -21.5 13.234375 -21.5 C 11.828125 -21.5 10.789062 -21.269531 10.125 -20.8125 C 9.457031 -20.351562 9.125 -19.773438 9.125 -19.078125 C 9.125 -18.398438 9.40625 -17.875 9.96875 -17.5 C 10.53125 -17.125 12.695312 -16.492188 16.46875 -15.609375 C 20.3125 -14.703125 22.753906 -13.648438 23.796875 -12.453125 C 24.847656 -11.265625 25.375 -9.773438 25.375 -7.984375 C 25.375 -5.117188 24.363281 -2.925781 22.34375 -1.40625 C 20.320312 0.113281 17.304688 0.875 13.296875 0.875 C 9.765625 0.875 7 0.144531 5 -1.3125 C 3 -2.769531 1.847656 -5.054688 1.546875 -8.171875 L 8.53125 -8.171875 C 8.53125 -6.828125 8.960938 -5.828125 9.828125 -5.171875 C 10.691406 -4.515625 12 -4.1875 13.75 -4.1875 C 15.238281 -4.1875 16.378906 -4.410156 17.171875 -4.859375 C 17.960938 -5.304688 18.359375 -5.90625 18.359375 -6.65625 C 18.359375 -7.414062 18.066406 -8.003906 17.484375 -8.421875 C 16.910156 -8.835938 14.957031 -9.40625 11.625 -10.125 C 7.894531 -10.914062 5.425781 -11.945312 4.21875 -13.21875 C 3.007812 -14.5 2.40625 -16.03125 2.40625 -17.8125 C 2.40625 -20.382812 3.320312 -22.484375 5.15625 -24.109375 C 6.988281 -25.742188 9.703125 -26.5625 13.296875 -26.5625 C 16.816406 -26.5625 19.507812 -25.832031 21.375 -24.375 C 23.25 -22.914062 24.289062 -20.78125 24.5 -17.96875 Z M 17.796875 -17.96875 "/></g></g></g><g fill="#000000" fill-opacity="1"><g transform="translate(57.853134, 114.986998)"><g><path d="M 4.71875 0 L 3.015625 0 L 3.015625 -3.375 L 0.046875 -8.609375 L 1.859375 -8.609375 L 3.828125 -5.21875 L 3.984375 -5.21875 L 5.90625 -8.609375 L 7.6875 -8.609375 L 4.71875 -3.375 Z M 4.71875 0 "/></g></g><g transform="translate(65.584721, 114.986998)"><g><path d="M 3.78125 0.125 C 3.144531 0.125 2.582031 -0.00390625 2.09375 -0.265625 C 1.613281 -0.523438 1.238281 -0.90625 0.96875 -1.40625 C 0.707031 -1.914062 0.578125 -2.53125 0.578125 -3.25 C 0.578125 -3.957031 0.707031 -4.566406 0.96875 -5.078125 C 1.238281 -5.585938 1.613281 -5.972656 2.09375 -6.234375 C 2.582031 -6.492188 3.144531 -6.625 3.78125 -6.625 C 4.414062 -6.625 4.972656 -6.492188 5.453125 -6.234375 C 5.929688 -5.972656 6.300781 -5.585938 6.5625 -5.078125 C 6.832031 -4.566406 6.96875 -3.957031 6.96875 -3.25 C 6.96875 -2.53125 6.832031 -1.914062 6.5625 -1.40625 C 6.300781 -0.90625 5.929688 -0.523438 5.453125 -0.265625 C 4.972656 -0.00390625 4.414062 0.125 3.78125 0.125 Z M 3.78125 -1.265625 C 4.789062 -1.265625 5.296875 -1.925781 5.296875 -3.25 C 5.296875 -3.9375 5.164062 -4.4375 4.90625 -4.75 C 4.644531 -5.070312 4.269531 -5.234375 3.78125 -5.234375 C 2.769531 -5.234375 2.265625 -4.570312 2.265625 -3.25 C 2.265625 -1.925781 2.769531 -1.265625 3.78125 -1.265625 Z M 3.78125 -1.265625 "/></g></g><g transform="translate(73.133765, 114.986998)"><g><path d="M 2.96875 0.125 C 2.238281 0.125 1.703125 -0.0703125 1.359375 -0.46875 C 1.015625 -0.875 0.84375 -1.445312 0.84375 -2.1875 L 0.84375 -6.5 L 2.46875 -6.5 L 2.46875 -2.390625 C 2.46875 -1.992188 2.550781 -1.703125 2.71875 -1.515625 C 2.894531 -1.335938 3.160156 -1.25 3.515625 -1.25 C 3.960938 -1.25 4.3125 -1.394531 4.5625 -1.6875 C 4.820312 -1.988281 4.953125 -2.457031 4.953125 -3.09375 L 4.953125 -6.5 L 6.578125 -6.5 L 6.578125 0 L 5.015625 0 L 5.015625 -0.953125 L 4.890625 -0.984375 C 4.679688 -0.609375 4.425781 -0.328125 4.125 -0.140625 C 3.820312 0.0351562 3.4375 0.125 2.96875 0.125 Z M 2.96875 0.125 "/></g></g><g transform="translate(80.647478, 114.986998)"><g><path d="M 0.9375 0 L 0.9375 -6.5 L 2.515625 -6.5 L 2.515625 -5.53125 L 2.640625 -5.5 C 2.796875 -5.863281 3 -6.128906 3.25 -6.296875 C 3.507812 -6.472656 3.820312 -6.5625 4.1875 -6.5625 C 4.5625 -6.5625 4.84375 -6.492188 5.03125 -6.359375 L 4.765625 -4.953125 L 4.640625 -4.9375 C 4.523438 -4.976562 4.421875 -5.007812 4.328125 -5.03125 C 4.234375 -5.050781 4.113281 -5.0625 3.96875 -5.0625 C 3.507812 -5.0625 3.160156 -4.898438 2.921875 -4.578125 C 2.679688 -4.253906 2.5625 -3.742188 2.5625 -3.046875 L 2.5625 0 Z M 0.9375 0 "/></g></g><g transform="translate(85.741022, 114.986998)"><g/></g><g transform="translate(88.585162, 114.986998)"><g><path d="M 1.140625 0 L 1.140625 -5.203125 L 0.21875 -5.203125 L 0.21875 -6.5 L 1.140625 -6.5 C 1.066406 -6.78125 1.03125 -7.039062 1.03125 -7.28125 C 1.03125 -7.6875 1.125 -8.035156 1.3125 -8.328125 C 1.507812 -8.617188 1.78125 -8.84375 2.125 -9 C 2.476562 -9.15625 2.898438 -9.234375 3.390625 -9.234375 C 4.109375 -9.234375 4.644531 -9.109375 5 -8.859375 L 4.625 -7.65625 L 4.5 -7.640625 C 4.25 -7.804688 3.9375 -7.890625 3.5625 -7.890625 C 3.257812 -7.890625 3.035156 -7.816406 2.890625 -7.671875 C 2.742188 -7.535156 2.671875 -7.34375 2.671875 -7.09375 C 2.671875 -6.988281 2.675781 -6.890625 2.6875 -6.796875 C 2.707031 -6.710938 2.734375 -6.613281 2.765625 -6.5 L 4.625 -6.5 L 4.625 -5.203125 L 2.765625 -5.203125 L 2.765625 0 Z M 1.140625 0 "/></g></g><g transform="translate(93.2724, 114.986998)"><g><path d="M 2.53125 0.125 C 2.113281 0.125 1.75 0.0507812 1.4375 -0.09375 C 1.132812 -0.25 0.898438 -0.472656 0.734375 -0.765625 C 0.578125 -1.066406 0.5 -1.425781 0.5 -1.84375 C 0.5 -2.226562 0.578125 -2.550781 0.734375 -2.8125 C 0.898438 -3.070312 1.15625 -3.285156 1.5 -3.453125 C 1.851562 -3.617188 2.304688 -3.75 2.859375 -3.84375 C 3.253906 -3.90625 3.550781 -3.972656 3.75 -4.046875 C 3.945312 -4.128906 4.082031 -4.21875 4.15625 -4.3125 C 4.226562 -4.40625 4.265625 -4.523438 4.265625 -4.671875 C 4.265625 -4.878906 4.191406 -5.035156 4.046875 -5.140625 C 3.898438 -5.253906 3.660156 -5.3125 3.328125 -5.3125 C 2.960938 -5.3125 2.613281 -5.226562 2.28125 -5.0625 C 1.957031 -4.90625 1.675781 -4.691406 1.4375 -4.421875 L 1.328125 -4.421875 L 0.640625 -5.453125 C 0.972656 -5.816406 1.375 -6.101562 1.84375 -6.3125 C 2.320312 -6.519531 2.84375 -6.625 3.40625 -6.625 C 4.257812 -6.625 4.878906 -6.441406 5.265625 -6.078125 C 5.648438 -5.710938 5.84375 -5.191406 5.84375 -4.515625 L 5.84375 -1.703125 C 5.84375 -1.410156 5.972656 -1.265625 6.234375 -1.265625 C 6.328125 -1.265625 6.421875 -1.28125 6.515625 -1.3125 L 6.609375 -1.296875 L 6.71875 -0.15625 C 6.625 -0.09375 6.5 -0.0390625 6.34375 0 C 6.1875 0.03125 6.007812 0.046875 5.8125 0.046875 C 5.425781 0.046875 5.125 -0.0234375 4.90625 -0.171875 C 4.6875 -0.328125 4.53125 -0.5625 4.4375 -0.875 L 4.3125 -0.890625 C 3.988281 -0.210938 3.394531 0.125 2.53125 0.125 Z M 3.046875 -1.09375 C 3.421875 -1.09375 3.722656 -1.21875 3.953125 -1.46875 C 4.179688 -1.726562 4.296875 -2.082031 4.296875 -2.53125 L 4.296875 -3.1875 L 4.1875 -3.21875 C 4.082031 -3.132812 3.953125 -3.066406 3.796875 -3.015625 C 3.640625 -2.960938 3.410156 -2.910156 3.109375 -2.859375 C 2.753906 -2.804688 2.5 -2.707031 2.34375 -2.5625 C 2.1875 -2.414062 2.109375 -2.210938 2.109375 -1.953125 C 2.109375 -1.671875 2.191406 -1.457031 2.359375 -1.3125 C 2.523438 -1.164062 2.753906 -1.09375 3.046875 -1.09375 Z M 3.046875 -1.09375 "/></g></g><g transform="translate(100.120714, 114.986998)"><g><path d="M 3.78125 0.125 C 3.15625 0.125 2.597656 -0.00390625 2.109375 -0.265625 C 1.628906 -0.523438 1.253906 -0.90625 0.984375 -1.40625 C 0.710938 -1.914062 0.578125 -2.53125 0.578125 -3.25 C 0.578125 -3.957031 0.710938 -4.566406 0.984375 -5.078125 C 1.253906 -5.585938 1.628906 -5.972656 2.109375 -6.234375 C 2.585938 -6.492188 3.132812 -6.625 3.75 -6.625 C 5.125 -6.625 6.003906 -6.125 6.390625 -5.125 L 5.265625 -4.328125 L 5.140625 -4.328125 C 5.015625 -4.628906 4.84375 -4.851562 4.625 -5 C 4.414062 -5.15625 4.125 -5.234375 3.75 -5.234375 C 3.28125 -5.234375 2.914062 -5.070312 2.65625 -4.75 C 2.394531 -4.425781 2.265625 -3.925781 2.265625 -3.25 C 2.265625 -2.582031 2.394531 -2.082031 2.65625 -1.75 C 2.925781 -1.425781 3.300781 -1.265625 3.78125 -1.265625 C 4.132812 -1.265625 4.429688 -1.359375 4.671875 -1.546875 C 4.921875 -1.734375 5.101562 -2.007812 5.21875 -2.375 L 5.34375 -2.375 L 6.5 -1.75 C 6.332031 -1.195312 6.023438 -0.742188 5.578125 -0.390625 C 5.128906 -0.046875 4.53125 0.125 3.78125 0.125 Z M 3.78125 0.125 "/></g></g><g transform="translate(106.815927, 114.986998)"><g><path d="M 4.484375 -1.546875 L 4.90625 -0.34375 C 4.726562 -0.195312 4.503906 -0.0820312 4.234375 0 C 3.972656 0.0820312 3.671875 0.125 3.328125 0.125 C 2.628906 0.125 2.097656 -0.0664062 1.734375 -0.453125 C 1.367188 -0.835938 1.1875 -1.394531 1.1875 -2.125 L 1.1875 -5.203125 L 0.1875 -5.203125 L 0.1875 -6.5 L 1.1875 -6.5 L 1.1875 -7.765625 L 2.8125 -8.03125 L 2.8125 -6.5 L 4.65625 -6.5 L 4.65625 -5.203125 L 2.8125 -5.203125 L 2.8125 -2.234375 C 2.8125 -1.910156 2.878906 -1.675781 3.015625 -1.53125 C 3.148438 -1.382812 3.34375 -1.3125 3.59375 -1.3125 C 3.882812 -1.3125 4.140625 -1.390625 4.359375 -1.546875 Z M 4.484375 -1.546875 "/></g></g><g transform="translate(111.862363, 114.986998)"><g><path d="M 3.78125 0.125 C 3.144531 0.125 2.582031 -0.00390625 2.09375 -0.265625 C 1.613281 -0.523438 1.238281 -0.90625 0.96875 -1.40625 C 0.707031 -1.914062 0.578125 -2.53125 0.578125 -3.25 C 0.578125 -3.957031 0.707031 -4.566406 0.96875 -5.078125 C 1.238281 -5.585938 1.613281 -5.972656 2.09375 -6.234375 C 2.582031 -6.492188 3.144531 -6.625 3.78125 -6.625 C 4.414062 -6.625 4.972656 -6.492188 5.453125 -6.234375 C 5.929688 -5.972656 6.300781 -5.585938 6.5625 -5.078125 C 6.832031 -4.566406 6.96875 -3.957031 6.96875 -3.25 C 6.96875 -2.53125 6.832031 -1.914062 6.5625 -1.40625 C 6.300781 -0.90625 5.929688 -0.523438 5.453125 -0.265625 C 4.972656 -0.00390625 4.414062 0.125 3.78125 0.125 Z M 3.78125 -1.265625 C 4.789062 -1.265625 5.296875 -1.925781 5.296875 -3.25 C 5.296875 -3.9375 5.164062 -4.4375 4.90625 -4.75 C 4.644531 -5.070312 4.269531 -5.234375 3.78125 -5.234375 C 2.769531 -5.234375 2.265625 -4.570312 2.265625 -3.25 C 2.265625 -1.925781 2.769531 -1.265625 3.78125 -1.265625 Z M 3.78125 -1.265625 "/></g></g><g transform="translate(119.411407, 114.986998)"><g><path d="M 0.9375 0 L 0.9375 -6.5 L 2.515625 -6.5 L 2.515625 -5.53125 L 2.640625 -5.5 C 2.796875 -5.863281 3 -6.128906 3.25 -6.296875 C 3.507812 -6.472656 3.820312 -6.5625 4.1875 -6.5625 C 4.5625 -6.5625 4.84375 -6.492188 5.03125 -6.359375 L 4.765625 -4.953125 L 4.640625 -4.9375 C 4.523438 -4.976562 4.421875 -5.007812 4.328125 -5.03125 C 4.234375 -5.050781 4.113281 -5.0625 3.96875 -5.0625 C 3.507812 -5.0625 3.160156 -4.898438 2.921875 -4.578125 C 2.679688 -4.253906 2.5625 -3.742188 2.5625 -3.046875 L 2.5625 0 Z M 0.9375 0 "/></g></g><g transform="translate(124.50495, 114.986998)"><g><path d="M 1.4375 2.75 C 1.15625 2.75 0.898438 2.726562 0.671875 2.6875 C 0.453125 2.644531 0.269531 2.585938 0.125 2.515625 L 0.390625 1.203125 L 0.5 1.171875 C 0.59375 1.222656 0.710938 1.265625 0.859375 1.296875 C 1.003906 1.328125 1.15625 1.34375 1.3125 1.34375 C 1.570312 1.34375 1.785156 1.304688 1.953125 1.234375 C 2.128906 1.160156 2.28125 1.046875 2.40625 0.890625 C 2.53125 0.734375 2.640625 0.515625 2.734375 0.234375 L 0.140625 -6.5 L 1.84375 -6.5 L 3.46875 -1.984375 L 3.609375 -1.984375 L 5.171875 -6.5 L 6.84375 -6.5 L 4.234375 0.40625 C 4.023438 0.96875 3.796875 1.414062 3.546875 1.75 C 3.296875 2.09375 3 2.34375 2.65625 2.5 C 2.320312 2.664062 1.914062 2.75 1.4375 2.75 Z M 1.4375 2.75 "/></g></g><g transform="translate(131.476922, 114.986998)"><g/></g><g transform="translate(134.321063, 114.986998)"><g><path d="M 1.140625 0 L 1.140625 -5.203125 L 0.21875 -5.203125 L 0.21875 -6.5 L 1.140625 -6.5 C 1.066406 -6.78125 1.03125 -7.039062 1.03125 -7.28125 C 1.03125 -7.6875 1.125 -8.035156 1.3125 -8.328125 C 1.507812 -8.617188 1.78125 -8.84375 2.125 -9 C 2.476562 -9.15625 2.898438 -9.234375 3.390625 -9.234375 C 4.109375 -9.234375 4.644531 -9.109375 5 -8.859375 L 4.625 -7.65625 L 4.5 -7.640625 C 4.25 -7.804688 3.9375 -7.890625 3.5625 -7.890625 C 3.257812 -7.890625 3.035156 -7.816406 2.890625 -7.671875 C 2.742188 -7.535156 2.671875 -7.34375 2.671875 -7.09375 C 2.671875 -6.988281 2.675781 -6.890625 2.6875 -6.796875 C 2.707031 -6.710938 2.734375 -6.613281 2.765625 -6.5 L 4.625 -6.5 L 4.625 -5.203125 L 2.765625 -5.203125 L 2.765625 0 Z M 1.140625 0 "/></g></g><g transform="translate(139.008301, 114.986998)"><g><path d="M 3.78125 0.125 C 3.144531 0.125 2.582031 -0.00390625 2.09375 -0.265625 C 1.613281 -0.523438 1.238281 -0.90625 0.96875 -1.40625 C 0.707031 -1.914062 0.578125 -2.53125 0.578125 -3.25 C 0.578125 -3.957031 0.707031 -4.566406 0.96875 -5.078125 C 1.238281 -5.585938 1.613281 -5.972656 2.09375 -6.234375 C 2.582031 -6.492188 3.144531 -6.625 3.78125 -6.625 C 4.414062 -6.625 4.972656 -6.492188 5.453125 -6.234375 C 5.929688 -5.972656 6.300781 -5.585938 6.5625 -5.078125 C 6.832031 -4.566406 6.96875 -3.957031 6.96875 -3.25 C 6.96875 -2.53125 6.832031 -1.914062 6.5625 -1.40625 C 6.300781 -0.90625 5.929688 -0.523438 5.453125 -0.265625 C 4.972656 -0.00390625 4.414062 0.125 3.78125 0.125 Z M 3.78125 -1.265625 C 4.789062 -1.265625 5.296875 -1.925781 5.296875 -3.25 C 5.296875 -3.9375 5.164062 -4.4375 4.90625 -4.75 C 4.644531 -5.070312 4.269531 -5.234375 3.78125 -5.234375 C 2.769531 -5.234375 2.265625 -4.570312 2.265625 -3.25 C 2.265625 -1.925781 2.769531 -1.265625 3.78125 -1.265625 Z M 3.78125 -1.265625 "/></g></g><g transform="translate(146.557345, 114.986998)"><g><path d="M 0.9375 0 L 0.9375 -6.5 L 2.515625 -6.5 L 2.515625 -5.53125 L 2.640625 -5.5 C 2.796875 -5.863281 3 -6.128906 3.25 -6.296875 C 3.507812 -6.472656 3.820312 -6.5625 4.1875 -6.5625 C 4.5625 -6.5625 4.84375 -6.492188 5.03125 -6.359375 L 4.765625 -4.953125 L 4.640625 -4.9375 C 4.523438 -4.976562 4.421875 -5.007812 4.328125 -5.03125 C 4.234375 -5.050781 4.113281 -5.0625 3.96875 -5.0625 C 3.507812 -5.0625 3.160156 -4.898438 2.921875 -4.578125 C 2.679688 -4.253906 2.5625 -3.742188 2.5625 -3.046875 L 2.5625 0 Z M 0.9375 0 "/></g></g><g transform="translate(151.650888, 114.986998)"><g/></g><g transform="translate(154.495029, 114.986998)"><g><path d="M 3.78125 0.125 C 3.15625 0.125 2.597656 -0.00390625 2.109375 -0.265625 C 1.628906 -0.523438 1.253906 -0.90625 0.984375 -1.40625 C 0.710938 -1.914062 0.578125 -2.53125 0.578125 -3.25 C 0.578125 -3.957031 0.710938 -4.566406 0.984375 -5.078125 C 1.253906 -5.585938 1.628906 -5.972656 2.109375 -6.234375 C 2.585938 -6.492188 3.132812 -6.625 3.75 -6.625 C 5.125 -6.625 6.003906 -6.125 6.390625 -5.125 L 5.265625 -4.328125 L 5.140625 -4.328125 C 5.015625 -4.628906 4.84375 -4.851562 4.625 -5 C 4.414062 -5.15625 4.125 -5.234375 3.75 -5.234375 C 3.28125 -5.234375 2.914062 -5.070312 2.65625 -4.75 C 2.394531 -4.425781 2.265625 -3.925781 2.265625 -3.25 C 2.265625 -2.582031 2.394531 -2.082031 2.65625 -1.75 C 2.925781 -1.425781 3.300781 -1.265625 3.78125 -1.265625 C 4.132812 -1.265625 4.429688 -1.359375 4.671875 -1.546875 C 4.921875 -1.734375 5.101562 -2.007812 5.21875 -2.375 L 5.34375 -2.375 L 6.5 -1.75 C 6.332031 -1.195312 6.023438 -0.742188 5.578125 -0.390625 C 5.128906 -0.046875 4.53125 0.125 3.78125 0.125 Z M 3.78125 0.125 "/></g></g><g transform="translate(161.190242, 114.986998)"><g><path d="M 2.96875 0.125 C 2.238281 0.125 1.703125 -0.0703125 1.359375 -0.46875 C 1.015625 -0.875 0.84375 -1.445312 0.84375 -2.1875 L 0.84375 -6.5 L 2.46875 -6.5 L 2.46875 -2.390625 C 2.46875 -1.992188 2.550781 -1.703125 2.71875 -1.515625 C 2.894531 -1.335938 3.160156 -1.25 3.515625 -1.25 C 3.960938 -1.25 4.3125 -1.394531 4.5625 -1.6875 C 4.820312 -1.988281 4.953125 -2.457031 4.953125 -3.09375 L 4.953125 -6.5 L 6.578125 -6.5 L 6.578125 0 L 5.015625 0 L 5.015625 -0.953125 L 4.890625 -0.984375 C 4.679688 -0.609375 4.425781 -0.328125 4.125 -0.140625 C 3.820312 0.0351562 3.4375 0.125 2.96875 0.125 Z M 2.96875 0.125 "/></g></g><g transform="translate(168.703955, 114.986998)"><g><path d="M 3.046875 0.125 C 2.597656 0.125 2.1875 0.0703125 1.8125 -0.03125 C 1.445312 -0.132812 1.132812 -0.273438 0.875 -0.453125 C 0.613281 -0.640625 0.421875 -0.851562 0.296875 -1.09375 L 1.203125 -2.0625 L 1.328125 -2.0625 C 1.546875 -1.769531 1.800781 -1.550781 2.09375 -1.40625 C 2.382812 -1.269531 2.703125 -1.203125 3.046875 -1.203125 C 3.367188 -1.203125 3.609375 -1.253906 3.765625 -1.359375 C 3.929688 -1.472656 4.015625 -1.640625 4.015625 -1.859375 C 4.015625 -2.023438 3.953125 -2.160156 3.828125 -2.265625 C 3.710938 -2.378906 3.53125 -2.46875 3.28125 -2.53125 L 2.421875 -2.734375 C 1.773438 -2.890625 1.300781 -3.125 1 -3.4375 C 0.707031 -3.757812 0.5625 -4.160156 0.5625 -4.640625 C 0.5625 -5.046875 0.660156 -5.398438 0.859375 -5.703125 C 1.066406 -6.003906 1.359375 -6.234375 1.734375 -6.390625 C 2.109375 -6.546875 2.546875 -6.625 3.046875 -6.625 C 3.628906 -6.625 4.113281 -6.535156 4.5 -6.359375 C 4.882812 -6.191406 5.1875 -5.96875 5.40625 -5.6875 L 4.53125 -4.75 L 4.421875 -4.75 C 4.234375 -4.945312 4.023438 -5.09375 3.796875 -5.1875 C 3.578125 -5.289062 3.328125 -5.34375 3.046875 -5.34375 C 2.398438 -5.34375 2.078125 -5.140625 2.078125 -4.734375 C 2.078125 -4.566406 2.132812 -4.429688 2.25 -4.328125 C 2.375 -4.222656 2.585938 -4.132812 2.890625 -4.0625 L 3.703125 -3.890625 C 4.359375 -3.742188 4.835938 -3.515625 5.140625 -3.203125 C 5.441406 -2.890625 5.59375 -2.472656 5.59375 -1.953125 C 5.59375 -1.535156 5.488281 -1.171875 5.28125 -0.859375 C 5.082031 -0.546875 4.789062 -0.300781 4.40625 -0.125 C 4.019531 0.0390625 3.566406 0.125 3.046875 0.125 Z M 3.046875 0.125 "/></g></g><g transform="translate(174.692549, 114.986998)"><g><path d="M 4.484375 -1.546875 L 4.90625 -0.34375 C 4.726562 -0.195312 4.503906 -0.0820312 4.234375 0 C 3.972656 0.0820312 3.671875 0.125 3.328125 0.125 C 2.628906 0.125 2.097656 -0.0664062 1.734375 -0.453125 C 1.367188 -0.835938 1.1875 -1.394531 1.1875 -2.125 L 1.1875 -5.203125 L 0.1875 -5.203125 L 0.1875 -6.5 L 1.1875 -6.5 L 1.1875 -7.765625 L 2.8125 -8.03125 L 2.8125 -6.5 L 4.65625 -6.5 L 4.65625 -5.203125 L 2.8125 -5.203125 L 2.8125 -2.234375 C 2.8125 -1.910156 2.878906 -1.675781 3.015625 -1.53125 C 3.148438 -1.382812 3.34375 -1.3125 3.59375 -1.3125 C 3.882812 -1.3125 4.140625 -1.390625 4.359375 -1.546875 Z M 4.484375 -1.546875 "/></g></g><g transform="translate(179.738985, 114.986998)"><g><path d="M 3.78125 0.125 C 3.144531 0.125 2.582031 -0.00390625 2.09375 -0.265625 C 1.613281 -0.523438 1.238281 -0.90625 0.96875 -1.40625 C 0.707031 -1.914062 0.578125 -2.53125 0.578125 -3.25 C 0.578125 -3.957031 0.707031 -4.566406 0.96875 -5.078125 C 1.238281 -5.585938 1.613281 -5.972656 2.09375 -6.234375 C 2.582031 -6.492188 3.144531 -6.625 3.78125 -6.625 C 4.414062 -6.625 4.972656 -6.492188 5.453125 -6.234375 C 5.929688 -5.972656 6.300781 -5.585938 6.5625 -5.078125 C 6.832031 -4.566406 6.96875 -3.957031 6.96875 -3.25 C 6.96875 -2.53125 6.832031 -1.914062 6.5625 -1.40625 C 6.300781 -0.90625 5.929688 -0.523438 5.453125 -0.265625 C 4.972656 -0.00390625 4.414062 0.125 3.78125 0.125 Z M 3.78125 -1.265625 C 4.789062 -1.265625 5.296875 -1.925781 5.296875 -3.25 C 5.296875 -3.9375 5.164062 -4.4375 4.90625 -4.75 C 4.644531 -5.070312 4.269531 -5.234375 3.78125 -5.234375 C 2.769531 -5.234375 2.265625 -4.570312 2.265625 -3.25 C 2.265625 -1.925781 2.769531 -1.265625 3.78125 -1.265625 Z M 3.78125 -1.265625 "/></g></g><g transform="translate(187.288029, 114.986998)"><g><path d="M 0.9375 0 L 0.9375 -6.5 L 2.5 -6.5 L 2.5 -5.625 L 2.625 -5.59375 C 2.832031 -5.945312 3.078125 -6.207031 3.359375 -6.375 C 3.648438 -6.539062 4.019531 -6.625 4.46875 -6.625 C 4.957031 -6.625 5.347656 -6.523438 5.640625 -6.328125 C 5.941406 -6.128906 6.160156 -5.847656 6.296875 -5.484375 L 6.421875 -5.484375 C 6.617188 -5.867188 6.875 -6.15625 7.1875 -6.34375 C 7.507812 -6.53125 7.90625 -6.625 8.375 -6.625 C 9.726562 -6.625 10.40625 -5.875 10.40625 -4.375 L 10.40625 0 L 8.765625 0 L 8.765625 -4.171875 C 8.765625 -4.546875 8.691406 -4.816406 8.546875 -4.984375 C 8.398438 -5.148438 8.160156 -5.234375 7.828125 -5.234375 C 6.929688 -5.234375 6.484375 -4.640625 6.484375 -3.453125 L 6.484375 0 L 4.859375 0 L 4.859375 -4.171875 C 4.859375 -4.546875 4.78125 -4.816406 4.625 -4.984375 C 4.476562 -5.148438 4.238281 -5.234375 3.90625 -5.234375 C 3.488281 -5.234375 3.160156 -5.09375 2.921875 -4.8125 C 2.679688 -4.539062 2.5625 -4.097656 2.5625 -3.484375 L 2.5625 0 Z M 0.9375 0 "/></g></g><g transform="translate(198.523267, 114.986998)"><g><path d="M 1.75 -7.28125 C 1.457031 -7.28125 1.21875 -7.367188 1.03125 -7.546875 C 0.84375 -7.722656 0.75 -7.953125 0.75 -8.234375 C 0.75 -8.515625 0.84375 -8.742188 1.03125 -8.921875 C 1.21875 -9.097656 1.457031 -9.1875 1.75 -9.1875 C 1.945312 -9.1875 2.117188 -9.144531 2.265625 -9.0625 C 2.421875 -8.976562 2.539062 -8.863281 2.625 -8.71875 C 2.707031 -8.582031 2.75 -8.421875 2.75 -8.234375 C 2.75 -8.046875 2.707031 -7.878906 2.625 -7.734375 C 2.539062 -7.585938 2.421875 -7.472656 2.265625 -7.390625 C 2.117188 -7.316406 1.945312 -7.28125 1.75 -7.28125 Z M 0.9375 0 L 0.9375 -6.5 L 2.5625 -6.5 L 2.5625 0 Z M 0.9375 0 "/></g></g><g transform="translate(202.02103, 114.986998)"><g><path d="M 5.453125 0 L 0.34375 0 L 0.34375 -1.34375 L 3.484375 -5.078125 L 3.453125 -5.203125 L 0.484375 -5.203125 L 0.484375 -6.5 L 5.40625 -6.5 L 5.40625 -5.15625 L 2.265625 -1.421875 L 2.296875 -1.296875 L 5.453125 -1.296875 Z M 5.453125 0 "/></g></g><g transform="translate(207.815304, 114.986998)"><g><path d="M 6.421875 -2.875 L 2.25 -2.875 C 2.289062 -2.3125 2.445312 -1.898438 2.71875 -1.640625 C 3 -1.390625 3.378906 -1.265625 3.859375 -1.265625 C 4.222656 -1.265625 4.519531 -1.332031 4.75 -1.46875 C 4.988281 -1.601562 5.175781 -1.816406 5.3125 -2.109375 L 5.4375 -2.109375 L 6.53125 -1.40625 C 6.3125 -0.945312 5.988281 -0.578125 5.5625 -0.296875 C 5.132812 -0.015625 4.566406 0.125 3.859375 0.125 C 3.179688 0.125 2.597656 0 2.109375 -0.25 C 1.617188 -0.507812 1.238281 -0.890625 0.96875 -1.390625 C 0.707031 -1.898438 0.578125 -2.519531 0.578125 -3.25 C 0.578125 -3.988281 0.71875 -4.609375 1 -5.109375 C 1.28125 -5.617188 1.65625 -6 2.125 -6.25 C 2.601562 -6.5 3.140625 -6.625 3.734375 -6.625 C 4.648438 -6.625 5.351562 -6.378906 5.84375 -5.890625 C 6.332031 -5.398438 6.578125 -4.6875 6.578125 -3.75 C 6.578125 -3.40625 6.566406 -3.140625 6.546875 -2.953125 Z M 5.015625 -3.9375 C 5.003906 -4.425781 4.890625 -4.785156 4.671875 -5.015625 C 4.460938 -5.242188 4.148438 -5.359375 3.734375 -5.359375 C 2.910156 -5.359375 2.425781 -4.882812 2.28125 -3.9375 Z M 5.015625 -3.9375 "/></g></g><g transform="translate(214.875604, 114.986998)"><g><path d="M 3.203125 0.125 C 2.691406 0.125 2.238281 0 1.84375 -0.25 C 1.445312 -0.5 1.132812 -0.875 0.90625 -1.375 C 0.6875 -1.882812 0.578125 -2.507812 0.578125 -3.25 C 0.578125 -3.988281 0.691406 -4.609375 0.921875 -5.109375 C 1.148438 -5.617188 1.46875 -6 1.875 -6.25 C 2.28125 -6.5 2.753906 -6.625 3.296875 -6.625 C 3.703125 -6.625 4.050781 -6.550781 4.34375 -6.40625 C 4.632812 -6.269531 4.882812 -6.054688 5.09375 -5.765625 L 5.21875 -5.796875 L 5.21875 -9.109375 L 6.84375 -9.109375 L 6.84375 0 L 5.21875 0 L 5.21875 -0.84375 L 5.09375 -0.859375 C 4.914062 -0.554688 4.664062 -0.316406 4.34375 -0.140625 C 4.03125 0.0351562 3.648438 0.125 3.203125 0.125 Z M 3.734375 -1.265625 C 4.191406 -1.265625 4.554688 -1.425781 4.828125 -1.75 C 5.097656 -2.082031 5.234375 -2.582031 5.234375 -3.25 C 5.234375 -3.914062 5.097656 -4.410156 4.828125 -4.734375 C 4.554688 -5.066406 4.191406 -5.234375 3.734375 -5.234375 C 3.253906 -5.234375 2.890625 -5.070312 2.640625 -4.75 C 2.390625 -4.4375 2.265625 -3.9375 2.265625 -3.25 C 2.265625 -2.5625 2.390625 -2.054688 2.640625 -1.734375 C 2.890625 -1.421875 3.253906 -1.265625 3.734375 -1.265625 Z M 3.734375 -1.265625 "/></g></g><g transform="translate(222.660187, 114.986998)"><g/></g><g transform="translate(225.504328, 114.986998)"><g><path d="M 2.53125 0.125 C 2.113281 0.125 1.75 0.0507812 1.4375 -0.09375 C 1.132812 -0.25 0.898438 -0.472656 0.734375 -0.765625 C 0.578125 -1.066406 0.5 -1.425781 0.5 -1.84375 C 0.5 -2.226562 0.578125 -2.550781 0.734375 -2.8125 C 0.898438 -3.070312 1.15625 -3.285156 1.5 -3.453125 C 1.851562 -3.617188 2.304688 -3.75 2.859375 -3.84375 C 3.253906 -3.90625 3.550781 -3.972656 3.75 -4.046875 C 3.945312 -4.128906 4.082031 -4.21875 4.15625 -4.3125 C 4.226562 -4.40625 4.265625 -4.523438 4.265625 -4.671875 C 4.265625 -4.878906 4.191406 -5.035156 4.046875 -5.140625 C 3.898438 -5.253906 3.660156 -5.3125 3.328125 -5.3125 C 2.960938 -5.3125 2.613281 -5.226562 2.28125 -5.0625 C 1.957031 -4.90625 1.675781 -4.691406 1.4375 -4.421875 L 1.328125 -4.421875 L 0.640625 -5.453125 C 0.972656 -5.816406 1.375 -6.101562 1.84375 -6.3125 C 2.320312 -6.519531 2.84375 -6.625 3.40625 -6.625 C 4.257812 -6.625 4.878906 -6.441406 5.265625 -6.078125 C 5.648438 -5.710938 5.84375 -5.191406 5.84375 -4.515625 L 5.84375 -1.703125 C 5.84375 -1.410156 5.972656 -1.265625 6.234375 -1.265625 C 6.328125 -1.265625 6.421875 -1.28125 6.515625 -1.3125 L 6.609375 -1.296875 L 6.71875 -0.15625 C 6.625 -0.09375 6.5 -0.0390625 6.34375 0 C 6.1875 0.03125 6.007812 0.046875 5.8125 0.046875 C 5.425781 0.046875 5.125 -0.0234375 4.90625 -0.171875 C 4.6875 -0.328125 4.53125 -0.5625 4.4375 -0.875 L 4.3125 -0.890625 C 3.988281 -0.210938 3.394531 0.125 2.53125 0.125 Z M 3.046875 -1.09375 C 3.421875 -1.09375 3.722656 -1.21875 3.953125 -1.46875 C 4.179688 -1.726562 4.296875 -2.082031 4.296875 -2.53125 L 4.296875 -3.1875 L 4.1875 -3.21875 C 4.082031 -3.132812 3.953125 -3.066406 3.796875 -3.015625 C 3.640625 -2.960938 3.410156 -2.910156 3.109375 -2.859375 C 2.753906 -2.804688 2.5 -2.707031 2.34375 -2.5625 C 2.1875 -2.414062 2.109375 -2.210938 2.109375 -1.953125 C 2.109375 -1.671875 2.191406 -1.457031 2.359375 -1.3125 C 2.523438 -1.164062 2.753906 -1.09375 3.046875 -1.09375 Z M 3.046875 -1.09375 "/></g></g><g transform="translate(232.352641, 114.986998)"><g><path d="M 0.9375 2.625 L 0.9375 -6.5 L 2.5625 -6.5 L 2.5625 -5.640625 L 2.6875 -5.625 C 2.882812 -5.957031 3.144531 -6.207031 3.46875 -6.375 C 3.789062 -6.539062 4.164062 -6.625 4.59375 -6.625 C 5.113281 -6.625 5.566406 -6.5 5.953125 -6.25 C 6.347656 -6 6.65625 -5.617188 6.875 -5.109375 C 7.09375 -4.609375 7.203125 -3.988281 7.203125 -3.25 C 7.203125 -2.5 7.085938 -1.875 6.859375 -1.375 C 6.628906 -0.875 6.3125 -0.5 5.90625 -0.25 C 5.5 0 5.023438 0.125 4.484375 0.125 C 4.078125 0.125 3.726562 0.0546875 3.4375 -0.078125 C 3.144531 -0.210938 2.894531 -0.425781 2.6875 -0.71875 L 2.5625 -0.6875 L 2.5625 2.625 Z M 4.03125 -1.265625 C 4.519531 -1.265625 4.890625 -1.421875 5.140625 -1.734375 C 5.390625 -2.054688 5.515625 -2.5625 5.515625 -3.25 C 5.515625 -3.9375 5.390625 -4.4375 5.140625 -4.75 C 4.890625 -5.070312 4.519531 -5.234375 4.03125 -5.234375 C 3.570312 -5.234375 3.207031 -5.066406 2.9375 -4.734375 C 2.675781 -4.410156 2.546875 -3.914062 2.546875 -3.25 C 2.546875 -2.582031 2.675781 -2.082031 2.9375 -1.75 C 3.207031 -1.425781 3.570312 -1.265625 4.03125 -1.265625 Z M 4.03125 -1.265625 "/></g></g><g transform="translate(240.131337, 114.986998)"><g><path d="M 0.9375 2.625 L 0.9375 -6.5 L 2.5625 -6.5 L 2.5625 -5.640625 L 2.6875 -5.625 C 2.882812 -5.957031 3.144531 -6.207031 3.46875 -6.375 C 3.789062 -6.539062 4.164062 -6.625 4.59375 -6.625 C 5.113281 -6.625 5.566406 -6.5 5.953125 -6.25 C 6.347656 -6 6.65625 -5.617188 6.875 -5.109375 C 7.09375 -4.609375 7.203125 -3.988281 7.203125 -3.25 C 7.203125 -2.5 7.085938 -1.875 6.859375 -1.375 C 6.628906 -0.875 6.3125 -0.5 5.90625 -0.25 C 5.5 0 5.023438 0.125 4.484375 0.125 C 4.078125 0.125 3.726562 0.0546875 3.4375 -0.078125 C 3.144531 -0.210938 2.894531 -0.425781 2.6875 -0.71875 L 2.5625 -0.6875 L 2.5625 2.625 Z M 4.03125 -1.265625 C 4.519531 -1.265625 4.890625 -1.421875 5.140625 -1.734375 C 5.390625 -2.054688 5.515625 -2.5625 5.515625 -3.25 C 5.515625 -3.9375 5.390625 -4.4375 5.140625 -4.75 C 4.890625 -5.070312 4.519531 -5.234375 4.03125 -5.234375 C 3.570312 -5.234375 3.207031 -5.066406 2.9375 -4.734375 C 2.675781 -4.410156 2.546875 -3.914062 2.546875 -3.25 C 2.546875 -2.582031 2.675781 -2.082031 2.9375 -1.75 C 3.207031 -1.425781 3.570312 -1.265625 4.03125 -1.265625 Z M 4.03125 -1.265625 "/></g></g><g transform="translate(247.910032, 114.986998)"><g><path d="M 2.53125 0.125 C 2.113281 0.125 1.75 0.0507812 1.4375 -0.09375 C 1.132812 -0.25 0.898438 -0.472656 0.734375 -0.765625 C 0.578125 -1.066406 0.5 -1.425781 0.5 -1.84375 C 0.5 -2.226562 0.578125 -2.550781 0.734375 -2.8125 C 0.898438 -3.070312 1.15625 -3.285156 1.5 -3.453125 C 1.851562 -3.617188 2.304688 -3.75 2.859375 -3.84375 C 3.253906 -3.90625 3.550781 -3.972656 3.75 -4.046875 C 3.945312 -4.128906 4.082031 -4.21875 4.15625 -4.3125 C 4.226562 -4.40625 4.265625 -4.523438 4.265625 -4.671875 C 4.265625 -4.878906 4.191406 -5.035156 4.046875 -5.140625 C 3.898438 -5.253906 3.660156 -5.3125 3.328125 -5.3125 C 2.960938 -5.3125 2.613281 -5.226562 2.28125 -5.0625 C 1.957031 -4.90625 1.675781 -4.691406 1.4375 -4.421875 L 1.328125 -4.421875 L 0.640625 -5.453125 C 0.972656 -5.816406 1.375 -6.101562 1.84375 -6.3125 C 2.320312 -6.519531 2.84375 -6.625 3.40625 -6.625 C 4.257812 -6.625 4.878906 -6.441406 5.265625 -6.078125 C 5.648438 -5.710938 5.84375 -5.191406 5.84375 -4.515625 L 5.84375 -1.703125 C 5.84375 -1.410156 5.972656 -1.265625 6.234375 -1.265625 C 6.328125 -1.265625 6.421875 -1.28125 6.515625 -1.3125 L 6.609375 -1.296875 L 6.71875 -0.15625 C 6.625 -0.09375 6.5 -0.0390625 6.34375 0 C 6.1875 0.03125 6.007812 0.046875 5.8125 0.046875 C 5.425781 0.046875 5.125 -0.0234375 4.90625 -0.171875 C 4.6875 -0.328125 4.53125 -0.5625 4.4375 -0.875 L 4.3125 -0.890625 C 3.988281 -0.210938 3.394531 0.125 2.53125 0.125 Z M 3.046875 -1.09375 C 3.421875 -1.09375 3.722656 -1.21875 3.953125 -1.46875 C 4.179688 -1.726562 4.296875 -2.082031 4.296875 -2.53125 L 4.296875 -3.1875 L 4.1875 -3.21875 C 4.082031 -3.132812 3.953125 -3.066406 3.796875 -3.015625 C 3.640625 -2.960938 3.410156 -2.910156 3.109375 -2.859375 C 2.753906 -2.804688 2.5 -2.707031 2.34375 -2.5625 C 2.1875 -2.414062 2.109375 -2.210938 2.109375 -1.953125 C 2.109375 -1.671875 2.191406 -1.457031 2.359375 -1.3125 C 2.523438 -1.164062 2.753906 -1.09375 3.046875 -1.09375 Z M 3.046875 -1.09375 "/></g></g><g transform="translate(254.758345, 114.986998)"><g><path d="M 0.9375 0 L 0.9375 -6.5 L 2.515625 -6.5 L 2.515625 -5.53125 L 2.640625 -5.5 C 2.796875 -5.863281 3 -6.128906 3.25 -6.296875 C 3.507812 -6.472656 3.820312 -6.5625 4.1875 -6.5625 C 4.5625 -6.5625 4.84375 -6.492188 5.03125 -6.359375 L 4.765625 -4.953125 L 4.640625 -4.9375 C 4.523438 -4.976562 4.421875 -5.007812 4.328125 -5.03125 C 4.234375 -5.050781 4.113281 -5.0625 3.96875 -5.0625 C 3.507812 -5.0625 3.160156 -4.898438 2.921875 -4.578125 C 2.679688 -4.253906 2.5625 -3.742188 2.5625 -3.046875 L 2.5625 0 Z M 0.9375 0 "/></g></g><g transform="translate(259.851889, 114.986998)"><g><path d="M 6.421875 -2.875 L 2.25 -2.875 C 2.289062 -2.3125 2.445312 -1.898438 2.71875 -1.640625 C 3 -1.390625 3.378906 -1.265625 3.859375 -1.265625 C 4.222656 -1.265625 4.519531 -1.332031 4.75 -1.46875 C 4.988281 -1.601562 5.175781 -1.816406 5.3125 -2.109375 L 5.4375 -2.109375 L 6.53125 -1.40625 C 6.3125 -0.945312 5.988281 -0.578125 5.5625 -0.296875 C 5.132812 -0.015625 4.566406 0.125 3.859375 0.125 C 3.179688 0.125 2.597656 0 2.109375 -0.25 C 1.617188 -0.507812 1.238281 -0.890625 0.96875 -1.390625 C 0.707031 -1.898438 0.578125 -2.519531 0.578125 -3.25 C 0.578125 -3.988281 0.71875 -4.609375 1 -5.109375 C 1.28125 -5.617188 1.65625 -6 2.125 -6.25 C 2.601562 -6.5 3.140625 -6.625 3.734375 -6.625 C 4.648438 -6.625 5.351562 -6.378906 5.84375 -5.890625 C 6.332031 -5.398438 6.578125 -4.6875 6.578125 -3.75 C 6.578125 -3.40625 6.566406 -3.140625 6.546875 -2.953125 Z M 5.015625 -3.9375 C 5.003906 -4.425781 4.890625 -4.785156 4.671875 -5.015625 C 4.460938 -5.242188 4.148438 -5.359375 3.734375 -5.359375 C 2.910156 -5.359375 2.425781 -4.882812 2.28125 -3.9375 Z M 5.015625 -3.9375 "/></g></g><g transform="translate(266.912188, 114.986998)"><g><path d="M 2.703125 0.125 C 2.109375 0.125 1.65625 -0.03125 1.34375 -0.34375 C 1.039062 -0.664062 0.890625 -1.148438 0.890625 -1.796875 L 0.890625 -9.109375 L 2.53125 -9.109375 L 2.53125 -1.859375 C 2.53125 -1.460938 2.691406 -1.265625 3.015625 -1.265625 C 3.109375 -1.265625 3.210938 -1.28125 3.328125 -1.3125 L 3.40625 -1.28125 L 3.546875 -0.03125 C 3.460938 0.0195312 3.34375 0.0546875 3.1875 0.078125 C 3.039062 0.109375 2.878906 0.125 2.703125 0.125 Z M 2.703125 0.125 "/></g></g><g transform="translate(270.645491, 114.986998)"><g/></g><g transform="translate(273.489631, 114.986998)"><g><path d="M 2.53125 0.125 C 2.113281 0.125 1.75 0.0507812 1.4375 -0.09375 C 1.132812 -0.25 0.898438 -0.472656 0.734375 -0.765625 C 0.578125 -1.066406 0.5 -1.425781 0.5 -1.84375 C 0.5 -2.226562 0.578125 -2.550781 0.734375 -2.8125 C 0.898438 -3.070312 1.15625 -3.285156 1.5 -3.453125 C 1.851562 -3.617188 2.304688 -3.75 2.859375 -3.84375 C 3.253906 -3.90625 3.550781 -3.972656 3.75 -4.046875 C 3.945312 -4.128906 4.082031 -4.21875 4.15625 -4.3125 C 4.226562 -4.40625 4.265625 -4.523438 4.265625 -4.671875 C 4.265625 -4.878906 4.191406 -5.035156 4.046875 -5.140625 C 3.898438 -5.253906 3.660156 -5.3125 3.328125 -5.3125 C 2.960938 -5.3125 2.613281 -5.226562 2.28125 -5.0625 C 1.957031 -4.90625 1.675781 -4.691406 1.4375 -4.421875 L 1.328125 -4.421875 L 0.640625 -5.453125 C 0.972656 -5.816406 1.375 -6.101562 1.84375 -6.3125 C 2.320312 -6.519531 2.84375 -6.625 3.40625 -6.625 C 4.257812 -6.625 4.878906 -6.441406 5.265625 -6.078125 C 5.648438 -5.710938 5.84375 -5.191406 5.84375 -4.515625 L 5.84375 -1.703125 C 5.84375 -1.410156 5.972656 -1.265625 6.234375 -1.265625 C 6.328125 -1.265625 6.421875 -1.28125 6.515625 -1.3125 L 6.609375 -1.296875 L 6.71875 -0.15625 C 6.625 -0.09375 6.5 -0.0390625 6.34375 0 C 6.1875 0.03125 6.007812 0.046875 5.8125 0.046875 C 5.425781 0.046875 5.125 -0.0234375 4.90625 -0.171875 C 4.6875 -0.328125 4.53125 -0.5625 4.4375 -0.875 L 4.3125 -0.890625 C 3.988281 -0.210938 3.394531 0.125 2.53125 0.125 Z M 3.046875 -1.09375 C 3.421875 -1.09375 3.722656 -1.21875 3.953125 -1.46875 C 4.179688 -1.726562 4.296875 -2.082031 4.296875 -2.53125 L 4.296875 -3.1875 L 4.1875 -3.21875 C 4.082031 -3.132812 3.953125 -3.066406 3.796875 -3.015625 C 3.640625 -2.960938 3.410156 -2.910156 3.109375 -2.859375 C 2.753906 -2.804688 2.5 -2.707031 2.34375 -2.5625 C 2.1875 -2.414062 2.109375 -2.210938 2.109375 -1.953125 C 2.109375 -1.671875 2.191406 -1.457031 2.359375 -1.3125 C 2.523438 -1.164062 2.753906 -1.09375 3.046875 -1.09375 Z M 3.046875 -1.09375 "/></g></g><g transform="translate(280.337945, 114.986998)"><g><path d="M 0.9375 0 L 0.9375 -6.5 L 2.5 -6.5 L 2.5 -5.546875 L 2.625 -5.515625 C 3.03125 -6.253906 3.6875 -6.625 4.59375 -6.625 C 5.34375 -6.625 5.890625 -6.414062 6.234375 -6 C 6.585938 -5.59375 6.765625 -5 6.765625 -4.21875 L 6.765625 0 L 5.140625 0 L 5.140625 -4.015625 C 5.140625 -4.453125 5.050781 -4.765625 4.875 -4.953125 C 4.707031 -5.140625 4.429688 -5.234375 4.046875 -5.234375 C 3.578125 -5.234375 3.210938 -5.082031 2.953125 -4.78125 C 2.691406 -4.476562 2.5625 -4.003906 2.5625 -3.359375 L 2.5625 0 Z M 0.9375 0 "/></g></g><g transform="translate(287.945874, 114.986998)"><g><path d="M 3.203125 0.125 C 2.691406 0.125 2.238281 0 1.84375 -0.25 C 1.445312 -0.5 1.132812 -0.875 0.90625 -1.375 C 0.6875 -1.882812 0.578125 -2.507812 0.578125 -3.25 C 0.578125 -3.988281 0.691406 -4.609375 0.921875 -5.109375 C 1.148438 -5.617188 1.46875 -6 1.875 -6.25 C 2.28125 -6.5 2.753906 -6.625 3.296875 -6.625 C 3.703125 -6.625 4.050781 -6.550781 4.34375 -6.40625 C 4.632812 -6.269531 4.882812 -6.054688 5.09375 -5.765625 L 5.21875 -5.796875 L 5.21875 -9.109375 L 6.84375 -9.109375 L 6.84375 0 L 5.21875 0 L 5.21875 -0.84375 L 5.09375 -0.859375 C 4.914062 -0.554688 4.664062 -0.316406 4.34375 -0.140625 C 4.03125 0.0351562 3.648438 0.125 3.203125 0.125 Z M 3.734375 -1.265625 C 4.191406 -1.265625 4.554688 -1.425781 4.828125 -1.75 C 5.097656 -2.082031 5.234375 -2.582031 5.234375 -3.25 C 5.234375 -3.914062 5.097656 -4.410156 4.828125 -4.734375 C 4.554688 -5.066406 4.191406 -5.234375 3.734375 -5.234375 C 3.253906 -5.234375 2.890625 -5.070312 2.640625 -4.75 C 2.390625 -4.4375 2.265625 -3.9375 2.265625 -3.25 C 2.265625 -2.5625 2.390625 -2.054688 2.640625 -1.734375 C 2.890625 -1.421875 3.253906 -1.265625 3.734375 -1.265625 Z M 3.734375 -1.265625 "/></g></g><g transform="translate(295.730457, 114.986998)"><g/></g><g transform="translate(298.574598, 114.986998)"><g><path d="M 2.703125 0.125 C 2.109375 0.125 1.65625 -0.03125 1.34375 -0.34375 C 1.039062 -0.664062 0.890625 -1.148438 0.890625 -1.796875 L 0.890625 -9.109375 L 2.53125 -9.109375 L 2.53125 -1.859375 C 2.53125 -1.460938 2.691406 -1.265625 3.015625 -1.265625 C 3.109375 -1.265625 3.210938 -1.28125 3.328125 -1.3125 L 3.40625 -1.28125 L 3.546875 -0.03125 C 3.460938 0.0195312 3.34375 0.0546875 3.1875 0.078125 C 3.039062 0.109375 2.878906 0.125 2.703125 0.125 Z M 2.703125 0.125 "/></g></g><g transform="translate(302.307901, 114.986998)"><g><path d="M 1.75 -7.28125 C 1.457031 -7.28125 1.21875 -7.367188 1.03125 -7.546875 C 0.84375 -7.722656 0.75 -7.953125 0.75 -8.234375 C 0.75 -8.515625 0.84375 -8.742188 1.03125 -8.921875 C 1.21875 -9.097656 1.457031 -9.1875 1.75 -9.1875 C 1.945312 -9.1875 2.117188 -9.144531 2.265625 -9.0625 C 2.421875 -8.976562 2.539062 -8.863281 2.625 -8.71875 C 2.707031 -8.582031 2.75 -8.421875 2.75 -8.234375 C 2.75 -8.046875 2.707031 -7.878906 2.625 -7.734375 C 2.539062 -7.585938 2.421875 -7.472656 2.265625 -7.390625 C 2.117188 -7.316406 1.945312 -7.28125 1.75 -7.28125 Z M 0.9375 0 L 0.9375 -6.5 L 2.5625 -6.5 L 2.5625 0 Z M 0.9375 0 "/></g></g><g transform="translate(305.805663, 114.986998)"><g><path d="M 1.140625 0 L 1.140625 -5.203125 L 0.21875 -5.203125 L 0.21875 -6.5 L 1.140625 -6.5 C 1.066406 -6.78125 1.03125 -7.039062 1.03125 -7.28125 C 1.03125 -7.6875 1.125 -8.035156 1.3125 -8.328125 C 1.507812 -8.617188 1.78125 -8.84375 2.125 -9 C 2.476562 -9.15625 2.898438 -9.234375 3.390625 -9.234375 C 4.109375 -9.234375 4.644531 -9.109375 5 -8.859375 L 4.625 -7.65625 L 4.5 -7.640625 C 4.25 -7.804688 3.9375 -7.890625 3.5625 -7.890625 C 3.257812 -7.890625 3.035156 -7.816406 2.890625 -7.671875 C 2.742188 -7.535156 2.671875 -7.34375 2.671875 -7.09375 C 2.671875 -6.988281 2.675781 -6.890625 2.6875 -6.796875 C 2.707031 -6.710938 2.734375 -6.613281 2.765625 -6.5 L 4.625 -6.5 L 4.625 -5.203125 L 2.765625 -5.203125 L 2.765625 0 Z M 1.140625 0 "/></g></g><g transform="translate(310.492901, 114.986998)"><g><path d="M 6.421875 -2.875 L 2.25 -2.875 C 2.289062 -2.3125 2.445312 -1.898438 2.71875 -1.640625 C 3 -1.390625 3.378906 -1.265625 3.859375 -1.265625 C 4.222656 -1.265625 4.519531 -1.332031 4.75 -1.46875 C 4.988281 -1.601562 5.175781 -1.816406 5.3125 -2.109375 L 5.4375 -2.109375 L 6.53125 -1.40625 C 6.3125 -0.945312 5.988281 -0.578125 5.5625 -0.296875 C 5.132812 -0.015625 4.566406 0.125 3.859375 0.125 C 3.179688 0.125 2.597656 0 2.109375 -0.25 C 1.617188 -0.507812 1.238281 -0.890625 0.96875 -1.390625 C 0.707031 -1.898438 0.578125 -2.519531 0.578125 -3.25 C 0.578125 -3.988281 0.71875 -4.609375 1 -5.109375 C 1.28125 -5.617188 1.65625 -6 2.125 -6.25 C 2.601562 -6.5 3.140625 -6.625 3.734375 -6.625 C 4.648438 -6.625 5.351562 -6.378906 5.84375 -5.890625 C 6.332031 -5.398438 6.578125 -4.6875 6.578125 -3.75 C 6.578125 -3.40625 6.566406 -3.140625 6.546875 -2.953125 Z M 5.015625 -3.9375 C 5.003906 -4.425781 4.890625 -4.785156 4.671875 -5.015625 C 4.460938 -5.242188 4.148438 -5.359375 3.734375 -5.359375 C 2.910156 -5.359375 2.425781 -4.882812 2.28125 -3.9375 Z M 5.015625 -3.9375 "/></g></g><g transform="translate(317.553201, 114.986998)"><g><path d="M 3.046875 0.125 C 2.597656 0.125 2.1875 0.0703125 1.8125 -0.03125 C 1.445312 -0.132812 1.132812 -0.273438 0.875 -0.453125 C 0.613281 -0.640625 0.421875 -0.851562 0.296875 -1.09375 L 1.203125 -2.0625 L 1.328125 -2.0625 C 1.546875 -1.769531 1.800781 -1.550781 2.09375 -1.40625 C 2.382812 -1.269531 2.703125 -1.203125 3.046875 -1.203125 C 3.367188 -1.203125 3.609375 -1.253906 3.765625 -1.359375 C 3.929688 -1.472656 4.015625 -1.640625 4.015625 -1.859375 C 4.015625 -2.023438 3.953125 -2.160156 3.828125 -2.265625 C 3.710938 -2.378906 3.53125 -2.46875 3.28125 -2.53125 L 2.421875 -2.734375 C 1.773438 -2.890625 1.300781 -3.125 1 -3.4375 C 0.707031 -3.757812 0.5625 -4.160156 0.5625 -4.640625 C 0.5625 -5.046875 0.660156 -5.398438 0.859375 -5.703125 C 1.066406 -6.003906 1.359375 -6.234375 1.734375 -6.390625 C 2.109375 -6.546875 2.546875 -6.625 3.046875 -6.625 C 3.628906 -6.625 4.113281 -6.535156 4.5 -6.359375 C 4.882812 -6.191406 5.1875 -5.96875 5.40625 -5.6875 L 4.53125 -4.75 L 4.421875 -4.75 C 4.234375 -4.945312 4.023438 -5.09375 3.796875 -5.1875 C 3.578125 -5.289062 3.328125 -5.34375 3.046875 -5.34375 C 2.398438 -5.34375 2.078125 -5.140625 2.078125 -4.734375 C 2.078125 -4.566406 2.132812 -4.429688 2.25 -4.328125 C 2.375 -4.222656 2.585938 -4.132812 2.890625 -4.0625 L 3.703125 -3.890625 C 4.359375 -3.742188 4.835938 -3.515625 5.140625 -3.203125 C 5.441406 -2.890625 5.59375 -2.472656 5.59375 -1.953125 C 5.59375 -1.535156 5.488281 -1.171875 5.28125 -0.859375 C 5.082031 -0.546875 4.789062 -0.300781 4.40625 -0.125 C 4.019531 0.0390625 3.566406 0.125 3.046875 0.125 Z M 3.046875 0.125 "/></g></g><g transform="translate(323.541795, 114.986998)"><g><path d="M 4.484375 -1.546875 L 4.90625 -0.34375 C 4.726562 -0.195312 4.503906 -0.0820312 4.234375 0 C 3.972656 0.0820312 3.671875 0.125 3.328125 0.125 C 2.628906 0.125 2.097656 -0.0664062 1.734375 -0.453125 C 1.367188 -0.835938 1.1875 -1.394531 1.1875 -2.125 L 1.1875 -5.203125 L 0.1875 -5.203125 L 0.1875 -6.5 L 1.1875 -6.5 L 1.1875 -7.765625 L 2.8125 -8.03125 L 2.8125 -6.5 L 4.65625 -6.5 L 4.65625 -5.203125 L 2.8125 -5.203125 L 2.8125 -2.234375 C 2.8125 -1.910156 2.878906 -1.675781 3.015625 -1.53125 C 3.148438 -1.382812 3.34375 -1.3125 3.59375 -1.3125 C 3.882812 -1.3125 4.140625 -1.390625 4.359375 -1.546875 Z M 4.484375 -1.546875 "/></g></g><g transform="translate(328.588231, 114.986998)"><g><path d="M 1.4375 2.75 C 1.15625 2.75 0.898438 2.726562 0.671875 2.6875 C 0.453125 2.644531 0.269531 2.585938 0.125 2.515625 L 0.390625 1.203125 L 0.5 1.171875 C 0.59375 1.222656 0.710938 1.265625 0.859375 1.296875 C 1.003906 1.328125 1.15625 1.34375 1.3125 1.34375 C 1.570312 1.34375 1.785156 1.304688 1.953125 1.234375 C 2.128906 1.160156 2.28125 1.046875 2.40625 0.890625 C 2.53125 0.734375 2.640625 0.515625 2.734375 0.234375 L 0.140625 -6.5 L 1.84375 -6.5 L 3.46875 -1.984375 L 3.609375 -1.984375 L 5.171875 -6.5 L 6.84375 -6.5 L 4.234375 0.40625 C 4.023438 0.96875 3.796875 1.414062 3.546875 1.75 C 3.296875 2.09375 3 2.34375 2.65625 2.5 C 2.320312 2.664062 1.914062 2.75 1.4375 2.75 Z M 1.4375 2.75 "/></g></g><g transform="translate(335.560203, 114.986998)"><g><path d="M 2.703125 0.125 C 2.109375 0.125 1.65625 -0.03125 1.34375 -0.34375 C 1.039062 -0.664062 0.890625 -1.148438 0.890625 -1.796875 L 0.890625 -9.109375 L 2.53125 -9.109375 L 2.53125 -1.859375 C 2.53125 -1.460938 2.691406 -1.265625 3.015625 -1.265625 C 3.109375 -1.265625 3.210938 -1.28125 3.328125 -1.3125 L 3.40625 -1.28125 L 3.546875 -0.03125 C 3.460938 0.0195312 3.34375 0.0546875 3.1875 0.078125 C 3.039062 0.109375 2.878906 0.125 2.703125 0.125 Z M 2.703125 0.125 "/></g></g><g transform="translate(339.293505, 114.986998)"><g><path d="M 6.421875 -2.875 L 2.25 -2.875 C 2.289062 -2.3125 2.445312 -1.898438 2.71875 -1.640625 C 3 -1.390625 3.378906 -1.265625 3.859375 -1.265625 C 4.222656 -1.265625 4.519531 -1.332031 4.75 -1.46875 C 4.988281 -1.601562 5.175781 -1.816406 5.3125 -2.109375 L 5.4375 -2.109375 L 6.53125 -1.40625 C 6.3125 -0.945312 5.988281 -0.578125 5.5625 -0.296875 C 5.132812 -0.015625 4.566406 0.125 3.859375 0.125 C 3.179688 0.125 2.597656 0 2.109375 -0.25 C 1.617188 -0.507812 1.238281 -0.890625 0.96875 -1.390625 C 0.707031 -1.898438 0.578125 -2.519531 0.578125 -3.25 C 0.578125 -3.988281 0.71875 -4.609375 1 -5.109375 C 1.28125 -5.617188 1.65625 -6 2.125 -6.25 C 2.601562 -6.5 3.140625 -6.625 3.734375 -6.625 C 4.648438 -6.625 5.351562 -6.378906 5.84375 -5.890625 C 6.332031 -5.398438 6.578125 -4.6875 6.578125 -3.75 C 6.578125 -3.40625 6.566406 -3.140625 6.546875 -2.953125 Z M 5.015625 -3.9375 C 5.003906 -4.425781 4.890625 -4.785156 4.671875 -5.015625 C 4.460938 -5.242188 4.148438 -5.359375 3.734375 -5.359375 C 2.910156 -5.359375 2.425781 -4.882812 2.28125 -3.9375 Z M 5.015625 -3.9375 "/></g></g><g transform="translate(346.353805, 114.986998)"><g/></g><g transform="translate(349.197945, 114.986998)"><g><path d="M 0.9375 2.625 L 0.9375 -6.5 L 2.5625 -6.5 L 2.5625 -5.640625 L 2.6875 -5.625 C 2.882812 -5.957031 3.144531 -6.207031 3.46875 -6.375 C 3.789062 -6.539062 4.164062 -6.625 4.59375 -6.625 C 5.113281 -6.625 5.566406 -6.5 5.953125 -6.25 C 6.347656 -6 6.65625 -5.617188 6.875 -5.109375 C 7.09375 -4.609375 7.203125 -3.988281 7.203125 -3.25 C 7.203125 -2.5 7.085938 -1.875 6.859375 -1.375 C 6.628906 -0.875 6.3125 -0.5 5.90625 -0.25 C 5.5 0 5.023438 0.125 4.484375 0.125 C 4.078125 0.125 3.726562 0.0546875 3.4375 -0.078125 C 3.144531 -0.210938 2.894531 -0.425781 2.6875 -0.71875 L 2.5625 -0.6875 L 2.5625 2.625 Z M 4.03125 -1.265625 C 4.519531 -1.265625 4.890625 -1.421875 5.140625 -1.734375 C 5.390625 -2.054688 5.515625 -2.5625 5.515625 -3.25 C 5.515625 -3.9375 5.390625 -4.4375 5.140625 -4.75 C 4.890625 -5.070312 4.519531 -5.234375 4.03125 -5.234375 C 3.570312 -5.234375 3.207031 -5.066406 2.9375 -4.734375 C 2.675781 -4.410156 2.546875 -3.914062 2.546875 -3.25 C 2.546875 -2.582031 2.675781 -2.082031 2.9375 -1.75 C 3.207031 -1.425781 3.570312 -1.265625 4.03125 -1.265625 Z M 4.03125 -1.265625 "/></g></g><g transform="translate(356.97664, 114.986998)"><g><path d="M 0.9375 0 L 0.9375 -6.5 L 2.515625 -6.5 L 2.515625 -5.53125 L 2.640625 -5.5 C 2.796875 -5.863281 3 -6.128906 3.25 -6.296875 C 3.507812 -6.472656 3.820312 -6.5625 4.1875 -6.5625 C 4.5625 -6.5625 4.84375 -6.492188 5.03125 -6.359375 L 4.765625 -4.953125 L 4.640625 -4.9375 C 4.523438 -4.976562 4.421875 -5.007812 4.328125 -5.03125 C 4.234375 -5.050781 4.113281 -5.0625 3.96875 -5.0625 C 3.507812 -5.0625 3.160156 -4.898438 2.921875 -4.578125 C 2.679688 -4.253906 2.5625 -3.742188 2.5625 -3.046875 L 2.5625 0 Z M 0.9375 0 "/></g></g><g transform="translate(362.070184, 114.986998)"><g><path d="M 3.78125 0.125 C 3.144531 0.125 2.582031 -0.00390625 2.09375 -0.265625 C 1.613281 -0.523438 1.238281 -0.90625 0.96875 -1.40625 C 0.707031 -1.914062 0.578125 -2.53125 0.578125 -3.25 C 0.578125 -3.957031 0.707031 -4.566406 0.96875 -5.078125 C 1.238281 -5.585938 1.613281 -5.972656 2.09375 -6.234375 C 2.582031 -6.492188 3.144531 -6.625 3.78125 -6.625 C 4.414062 -6.625 4.972656 -6.492188 5.453125 -6.234375 C 5.929688 -5.972656 6.300781 -5.585938 6.5625 -5.078125 C 6.832031 -4.566406 6.96875 -3.957031 6.96875 -3.25 C 6.96875 -2.53125 6.832031 -1.914062 6.5625 -1.40625 C 6.300781 -0.90625 5.929688 -0.523438 5.453125 -0.265625 C 4.972656 -0.00390625 4.414062 0.125 3.78125 0.125 Z M 3.78125 -1.265625 C 4.789062 -1.265625 5.296875 -1.925781 5.296875 -3.25 C 5.296875 -3.9375 5.164062 -4.4375 4.90625 -4.75 C 4.644531 -5.070312 4.269531 -5.234375 3.78125 -5.234375 C 2.769531 -5.234375 2.265625 -4.570312 2.265625 -3.25 C 2.265625 -1.925781 2.769531 -1.265625 3.78125 -1.265625 Z M 3.78125 -1.265625 "/></g></g><g transform="translate(369.619228, 114.986998)"><g><path d="M 3.203125 0.125 C 2.691406 0.125 2.238281 0 1.84375 -0.25 C 1.445312 -0.5 1.132812 -0.875 0.90625 -1.375 C 0.6875 -1.882812 0.578125 -2.507812 0.578125 -3.25 C 0.578125 -3.988281 0.691406 -4.609375 0.921875 -5.109375 C 1.148438 -5.617188 1.46875 -6 1.875 -6.25 C 2.28125 -6.5 2.753906 -6.625 3.296875 -6.625 C 3.703125 -6.625 4.050781 -6.550781 4.34375 -6.40625 C 4.632812 -6.269531 4.882812 -6.054688 5.09375 -5.765625 L 5.21875 -5.796875 L 5.21875 -9.109375 L 6.84375 -9.109375 L 6.84375 0 L 5.21875 0 L 5.21875 -0.84375 L 5.09375 -0.859375 C 4.914062 -0.554688 4.664062 -0.316406 4.34375 -0.140625 C 4.03125 0.0351562 3.648438 0.125 3.203125 0.125 Z M 3.734375 -1.265625 C 4.191406 -1.265625 4.554688 -1.425781 4.828125 -1.75 C 5.097656 -2.082031 5.234375 -2.582031 5.234375 -3.25 C 5.234375 -3.914062 5.097656 -4.410156 4.828125 -4.734375 C 4.554688 -5.066406 4.191406 -5.234375 3.734375 -5.234375 C 3.253906 -5.234375 2.890625 -5.070312 2.640625 -4.75 C 2.390625 -4.4375 2.265625 -3.9375 2.265625 -3.25 C 2.265625 -2.5625 2.390625 -2.054688 2.640625 -1.734375 C 2.890625 -1.421875 3.253906 -1.265625 3.734375 -1.265625 Z M 3.734375 -1.265625 "/></g></g><g transform="translate(377.403811, 114.986998)"><g><path d="M 2.96875 0.125 C 2.238281 0.125 1.703125 -0.0703125 1.359375 -0.46875 C 1.015625 -0.875 0.84375 -1.445312 0.84375 -2.1875 L 0.84375 -6.5 L 2.46875 -6.5 L 2.46875 -2.390625 C 2.46875 -1.992188 2.550781 -1.703125 2.71875 -1.515625 C 2.894531 -1.335938 3.160156 -1.25 3.515625 -1.25 C 3.960938 -1.25 4.3125 -1.394531 4.5625 -1.6875 C 4.820312 -1.988281 4.953125 -2.457031 4.953125 -3.09375 L 4.953125 -6.5 L 6.578125 -6.5 L 6.578125 0 L 5.015625 0 L 5.015625 -0.953125 L 4.890625 -0.984375 C 4.679688 -0.609375 4.425781 -0.328125 4.125 -0.140625 C 3.820312 0.0351562 3.4375 0.125 2.96875 0.125 Z M 2.96875 0.125 "/></g></g><g transform="translate(384.917524, 114.986998)"><g><path d="M 3.78125 0.125 C 3.15625 0.125 2.597656 -0.00390625 2.109375 -0.265625 C 1.628906 -0.523438 1.253906 -0.90625 0.984375 -1.40625 C 0.710938 -1.914062 0.578125 -2.53125 0.578125 -3.25 C 0.578125 -3.957031 0.710938 -4.566406 0.984375 -5.078125 C 1.253906 -5.585938 1.628906 -5.972656 2.109375 -6.234375 C 2.585938 -6.492188 3.132812 -6.625 3.75 -6.625 C 5.125 -6.625 6.003906 -6.125 6.390625 -5.125 L 5.265625 -4.328125 L 5.140625 -4.328125 C 5.015625 -4.628906 4.84375 -4.851562 4.625 -5 C 4.414062 -5.15625 4.125 -5.234375 3.75 -5.234375 C 3.28125 -5.234375 2.914062 -5.070312 2.65625 -4.75 C 2.394531 -4.425781 2.265625 -3.925781 2.265625 -3.25 C 2.265625 -2.582031 2.394531 -2.082031 2.65625 -1.75 C 2.925781 -1.425781 3.300781 -1.265625 3.78125 -1.265625 C 4.132812 -1.265625 4.429688 -1.359375 4.671875 -1.546875 C 4.921875 -1.734375 5.101562 -2.007812 5.21875 -2.375 L 5.34375 -2.375 L 6.5 -1.75 C 6.332031 -1.195312 6.023438 -0.742188 5.578125 -0.390625 C 5.128906 -0.046875 4.53125 0.125 3.78125 0.125 Z M 3.78125 0.125 "/></g></g><g transform="translate(391.612737, 114.986998)"><g><path d="M 4.484375 -1.546875 L 4.90625 -0.34375 C 4.726562 -0.195312 4.503906 -0.0820312 4.234375 0 C 3.972656 0.0820312 3.671875 0.125 3.328125 0.125 C 2.628906 0.125 2.097656 -0.0664062 1.734375 -0.453125 C 1.367188 -0.835938 1.1875 -1.394531 1.1875 -2.125 L 1.1875 -5.203125 L 0.1875 -5.203125 L 0.1875 -6.5 L 1.1875 -6.5 L 1.1875 -7.765625 L 2.8125 -8.03125 L 2.8125 -6.5 L 4.65625 -6.5 L 4.65625 -5.203125 L 2.8125 -5.203125 L 2.8125 -2.234375 C 2.8125 -1.910156 2.878906 -1.675781 3.015625 -1.53125 C 3.148438 -1.382812 3.34375 -1.3125 3.59375 -1.3125 C 3.882812 -1.3125 4.140625 -1.390625 4.359375 -1.546875 Z M 4.484375 -1.546875 "/></g></g><g transform="translate(396.659173, 114.986998)"><g><path d="M 3.046875 0.125 C 2.597656 0.125 2.1875 0.0703125 1.8125 -0.03125 C 1.445312 -0.132812 1.132812 -0.273438 0.875 -0.453125 C 0.613281 -0.640625 0.421875 -0.851562 0.296875 -1.09375 L 1.203125 -2.0625 L 1.328125 -2.0625 C 1.546875 -1.769531 1.800781 -1.550781 2.09375 -1.40625 C 2.382812 -1.269531 2.703125 -1.203125 3.046875 -1.203125 C 3.367188 -1.203125 3.609375 -1.253906 3.765625 -1.359375 C 3.929688 -1.472656 4.015625 -1.640625 4.015625 -1.859375 C 4.015625 -2.023438 3.953125 -2.160156 3.828125 -2.265625 C 3.710938 -2.378906 3.53125 -2.46875 3.28125 -2.53125 L 2.421875 -2.734375 C 1.773438 -2.890625 1.300781 -3.125 1 -3.4375 C 0.707031 -3.757812 0.5625 -4.160156 0.5625 -4.640625 C 0.5625 -5.046875 0.660156 -5.398438 0.859375 -5.703125 C 1.066406 -6.003906 1.359375 -6.234375 1.734375 -6.390625 C 2.109375 -6.546875 2.546875 -6.625 3.046875 -6.625 C 3.628906 -6.625 4.113281 -6.535156 4.5 -6.359375 C 4.882812 -6.191406 5.1875 -5.96875 5.40625 -5.6875 L 4.53125 -4.75 L 4.421875 -4.75 C 4.234375 -4.945312 4.023438 -5.09375 3.796875 -5.1875 C 3.578125 -5.289062 3.328125 -5.34375 3.046875 -5.34375 C 2.398438 -5.34375 2.078125 -5.140625 2.078125 -4.734375 C 2.078125 -4.566406 2.132812 -4.429688 2.25 -4.328125 C 2.375 -4.222656 2.585938 -4.132812 2.890625 -4.0625 L 3.703125 -3.890625 C 4.359375 -3.742188 4.835938 -3.515625 5.140625 -3.203125 C 5.441406 -2.890625 5.59375 -2.472656 5.59375 -1.953125 C 5.59375 -1.535156 5.488281 -1.171875 5.28125 -0.859375 C 5.082031 -0.546875 4.789062 -0.300781 4.40625 -0.125 C 4.019531 0.0390625 3.566406 0.125 3.046875 0.125 Z M 3.046875 0.125 "/></g></g></g><g fill="#000000" fill-opacity="1"><g transform="translate(402.651694, 114.986998)"><g/></g></g><g clip-path="url(#20add0c944)"><path fill="#ed203a" d="M 37.285156 39.585938 L 37.285156 64.671875 L 10.441406 64.671875 L 10.441406 53.710938 L 33.335938 45.308594 L 33.335938 41.03125 Z M 31.078125 30.378906 C 29.730469 30.378906 28.6875 31.121094 28.644531 32.042969 L 28.070312 45.355469 L 8.667969 52.472656 L 8.667969 66.441406 L 50.371094 66.441406 L 50.371094 44.410156 L 39.050781 37.050781 L 33.804688 38.976562 L 33.507812 32.042969 C 33.46875 31.121094 32.421875 30.378906 31.078125 30.378906 Z M 31.078125 30.378906 " fill-opacity="1" fill-rule="evenodd"/></g><path fill="#ed203a" d="M 22.890625 36.078125 C 21.660156 36.078125 20.707031 36.757812 20.671875 37.601562 L 20.261719 47.066406 L 25.4375 45.164062 L 25.113281 37.597656 C 25.074219 36.757812 24.121094 36.078125 22.890625 36.078125 Z M 22.890625 36.078125 " fill-opacity="1" fill-rule="evenodd"/><path fill="#ed203a" d="M 15.535156 41.195312 C 14.515625 41.195312 13.726562 41.761719 13.699219 42.453125 L 13.394531 49.585938 L 17.613281 48.035156 L 17.371094 42.453125 C 17.339844 41.761719 16.550781 41.195312 15.535156 41.195312 Z M 15.535156 41.195312 " fill-opacity="1" fill-rule="evenodd"/><g clip-path="url(#3146974c0c)"><path fill="#ed203a" d="M 30.996094 28.855469 C 30.996094 28.855469 30.828125 26.523438 27.246094 25.5625 C 22.726562 24.351562 25.011719 17.621094 25.011719 17.621094 C 25.011719 17.621094 25.601562 22.148438 29.757812 23.257812 C 33.171875 24.175781 32.96875 27.710938 30.996094 28.855469 Z M 30.996094 28.855469 " fill-opacity="1" fill-rule="nonzero"/></g><path fill="#ed203a" d="M 22.890625 35.191406 C 22.890625 35.191406 22.773438 33.570312 20.289062 32.90625 C 17.144531 32.0625 18.734375 27.382812 18.734375 27.382812 C 18.734375 27.382812 19.144531 30.53125 22.03125 31.304688 C 24.402344 31.941406 24.265625 34.398438 22.890625 35.191406 Z M 22.890625 35.191406 " fill-opacity="1" fill-rule="nonzero"/><path fill="#ed203a" d="M 33.023438 50.046875 L 33.023438 59 L 27.355469 59.476562 L 27.355469 51.792969 Z M 33.023438 50.046875 " fill-opacity="1" fill-rule="evenodd"/><path fill="#ed203a" d="M 24.101562 52.796875 L 24.101562 59.753906 L 18.898438 60.191406 L 18.898438 54.402344 Z M 24.101562 52.796875 " fill-opacity="1" fill-rule="evenodd"/><path fill="#ed203a" d="M 16.757812 55.0625 L 16.757812 60.371094 L 12.097656 60.765625 L 12.097656 56.496094 Z M 16.757812 55.0625 " fill-opacity="1" fill-rule="evenodd"/><path stroke-linecap="butt" transform="matrix(0.000000000517421, -0.29646, 0.29646, 0.000000000517421, 49.370425, 66.451947)" fill="none" stroke-linejoin="miter" d="M -0.00397391 2.005053 L 72.333904 2.005052 " stroke="#ed203a" stroke-width="4" stroke-opacity="1" stroke-miterlimit="4"/><g clip-path="url(#ca88acde49)"><path fill="#ed203a" d="M 8.464844 66.453125 L 50.558594 66.453125 L 50.558594 120.054688 L 8.464844 120.054688 Z M 8.464844 66.453125 " fill-opacity="1" fill-rule="nonzero"/></g><g clip-path="url(#1bca1a5277)"><g clip-path="url(#18bc737e23)"><path fill="#ed203a" d="M 8.488281 82.925781 L 50.558594 82.925781 L 50.558594 127.457031 L 8.488281 127.457031 Z M 8.488281 82.925781 " fill-opacity="1" fill-rule="nonzero"/></g></g><g clip-path="url(#bff2b59c74)"><path fill="#ffffff" d="M 27.6875 122.808594 L -5.894531 122.808594 C -6.195312 122.808594 -6.492188 122.78125 -6.789062 122.722656 C -7.082031 122.664062 -7.371094 122.574219 -7.648438 122.460938 C -7.925781 122.34375 -8.1875 122.203125 -8.4375 122.035156 C -8.6875 121.871094 -8.917969 121.679688 -9.132812 121.46875 C -9.34375 121.253906 -9.535156 121.023438 -9.703125 120.773438 C -9.867188 120.523438 -10.007812 120.261719 -10.125 119.980469 C -10.238281 119.703125 -10.328125 119.417969 -10.386719 119.125 C -10.445312 118.828125 -10.472656 118.53125 -10.472656 118.230469 L -10.472656 100.800781 L -18.335938 96.304688 C -18.777344 96.054688 -19.167969 95.738281 -19.503906 95.355469 C -19.835938 94.976562 -20.101562 94.550781 -20.296875 94.082031 C -20.492188 93.613281 -20.605469 93.125 -20.636719 92.621094 C -20.667969 92.113281 -20.617188 91.617188 -20.484375 91.125 L -16.902344 77.996094 C -16.726562 77.339844 -16.414062 76.753906 -15.972656 76.234375 C -15.53125 75.714844 -15.003906 75.316406 -14.382812 75.035156 L 1.105469 67.996094 C 1.304688 67.902344 1.515625 67.859375 1.738281 67.859375 L 20.054688 67.859375 C 20.292969 67.859375 20.523438 67.910156 20.738281 68.019531 L 34.914062 75.105469 C 36.003906 75.648438 36.753906 76.492188 37.167969 77.636719 L 41.980469 90.867188 C 42.164062 91.375 42.257812 91.898438 42.257812 92.4375 C 42.257812 92.980469 42.164062 93.503906 41.976562 94.011719 C 41.792969 94.515625 41.523438 94.976562 41.175781 95.390625 C 40.828125 95.800781 40.417969 96.140625 39.949219 96.410156 L 32.265625 100.800781 L 32.265625 118.230469 C 32.265625 118.53125 32.234375 118.828125 32.175781 119.125 C 32.117188 119.417969 32.03125 119.703125 31.914062 119.980469 C 31.800781 120.261719 31.660156 120.523438 31.492188 120.773438 C 31.324219 121.023438 31.136719 121.253906 30.921875 121.46875 C 30.710938 121.679688 30.480469 121.871094 30.230469 122.035156 C 29.980469 122.203125 29.714844 122.34375 29.4375 122.460938 C 29.160156 122.574219 28.875 122.664062 28.578125 122.722656 C 28.285156 122.78125 27.988281 122.808594 27.6875 122.808594 Z M -7.421875 90.753906 L -7.421875 118.230469 C -7.421875 118.433594 -7.382812 118.628906 -7.304688 118.816406 C -7.226562 119 -7.117188 119.167969 -6.972656 119.308594 C -6.832031 119.453125 -6.667969 119.5625 -6.480469 119.640625 C -6.292969 119.71875 -6.097656 119.757812 -5.894531 119.757812 L 27.6875 119.757812 C 27.886719 119.757812 28.082031 119.71875 28.269531 119.640625 C 28.457031 119.5625 28.621094 119.453125 28.765625 119.308594 C 28.910156 119.167969 29.019531 119 29.097656 118.816406 C 29.171875 118.628906 29.210938 118.433594 29.210938 118.230469 L 29.210938 90.753906 C 29.210938 90.550781 29.25 90.359375 29.328125 90.171875 C 29.40625 89.984375 29.515625 89.820312 29.660156 89.675781 C 29.804688 89.53125 29.96875 89.421875 30.15625 89.34375 C 30.34375 89.265625 30.535156 89.226562 30.738281 89.226562 C 30.941406 89.226562 31.136719 89.265625 31.324219 89.34375 C 31.511719 89.421875 31.675781 89.53125 31.820312 89.675781 C 31.960938 89.820312 32.070312 89.984375 32.148438 90.171875 C 32.226562 90.359375 32.265625 90.550781 32.265625 90.753906 L 32.265625 97.28125 L 38.433594 93.757812 C 38.757812 93.574219 38.984375 93.308594 39.109375 92.957031 C 39.238281 92.609375 39.238281 92.261719 39.109375 91.910156 L 34.300781 78.679688 C 34.164062 78.300781 33.914062 78.019531 33.550781 77.839844 L 19.695312 70.910156 L 2.066406 70.910156 L -13.117188 77.8125 C -13.554688 78.011719 -13.832031 78.339844 -13.957031 78.800781 L -17.539062 91.929688 C -17.628906 92.265625 -17.609375 92.59375 -17.476562 92.914062 C -17.34375 93.234375 -17.125 93.484375 -16.824219 93.65625 L -10.472656 97.28125 L -10.472656 90.753906 C -10.472656 90.550781 -10.4375 90.359375 -10.359375 90.171875 C -10.28125 89.984375 -10.171875 89.820312 -10.027344 89.675781 C -9.882812 89.53125 -9.71875 89.421875 -9.53125 89.34375 C -9.34375 89.265625 -9.152344 89.226562 -8.949219 89.226562 C -8.746094 89.226562 -8.550781 89.265625 -8.363281 89.34375 C -8.175781 89.421875 -8.011719 89.53125 -7.867188 89.675781 C -7.726562 89.820312 -7.617188 89.984375 -7.539062 90.171875 C -7.460938 90.359375 -7.421875 90.550781 -7.421875 90.753906 Z M -7.421875 90.753906 " fill-opacity="1" fill-rule="nonzero"/></g><g clip-path="url(#44c812c3aa)"><path fill="#ffffff" d="M 10.894531 78.542969 C 10.265625 78.542969 9.640625 78.492188 9.019531 78.390625 C 8.398438 78.289062 7.789062 78.136719 7.191406 77.933594 C 6.59375 77.730469 6.019531 77.476562 5.464844 77.179688 C 4.910156 76.878906 4.386719 76.539062 3.886719 76.152344 C 3.390625 75.765625 2.925781 75.339844 2.5 74.878906 C 2.074219 74.414062 1.6875 73.921875 1.339844 73.394531 C 0.996094 72.867188 0.695312 72.316406 0.441406 71.738281 C 0.1875 71.160156 -0.015625 70.566406 -0.171875 69.957031 C -0.21875 69.761719 -0.230469 69.5625 -0.203125 69.363281 C -0.171875 69.164062 -0.105469 68.976562 0 68.800781 C 0.101562 68.628906 0.234375 68.480469 0.398438 68.359375 C 0.558594 68.238281 0.738281 68.152344 0.933594 68.105469 C 1.128906 68.054688 1.328125 68.042969 1.527344 68.074219 C 1.730469 68.101562 1.917969 68.167969 2.089844 68.273438 C 2.265625 68.375 2.410156 68.507812 2.53125 68.671875 C 2.652344 68.832031 2.738281 69.011719 2.789062 69.207031 C 3.019531 70.105469 3.390625 70.945312 3.902344 71.71875 C 4.410156 72.492188 5.035156 73.164062 5.765625 73.734375 C 6.5 74.304688 7.304688 74.738281 8.183594 75.039062 C 9.0625 75.339844 9.964844 75.488281 10.890625 75.492188 C 11.820312 75.492188 12.722656 75.339844 13.601562 75.042969 C 14.480469 74.742188 15.285156 74.308594 16.019531 73.742188 C 16.753906 73.171875 17.375 72.5 17.886719 71.726562 C 18.398438 70.953125 18.769531 70.117188 19.003906 69.21875 C 19.054688 69.023438 19.140625 68.84375 19.261719 68.683594 C 19.382812 68.523438 19.53125 68.390625 19.707031 68.289062 C 19.878906 68.183594 20.066406 68.121094 20.269531 68.089844 C 20.46875 68.0625 20.664062 68.074219 20.863281 68.125 C 21.058594 68.175781 21.234375 68.261719 21.398438 68.382812 C 21.558594 68.503906 21.691406 68.652344 21.792969 68.824219 C 21.898438 69 21.964844 69.1875 21.992188 69.386719 C 22.019531 69.585938 22.011719 69.785156 21.960938 69.980469 C 21.804688 70.589844 21.597656 71.179688 21.34375 71.753906 C 21.085938 72.332031 20.785156 72.878906 20.441406 73.40625 C 20.09375 73.929688 19.707031 74.425781 19.28125 74.886719 C 18.855469 75.347656 18.390625 75.769531 17.894531 76.15625 C 17.394531 76.539062 16.871094 76.882812 16.316406 77.179688 C 15.761719 77.476562 15.1875 77.726562 14.59375 77.929688 C 14 78.132812 13.390625 78.289062 12.769531 78.390625 C 12.148438 78.492188 11.523438 78.542969 10.894531 78.542969 Z M 10.894531 78.542969 " fill-opacity="1" fill-rule="nonzero"/></g><path fill="#ffffff" d="M 23.871094 98.386719 L 14.710938 98.386719 C 14.40625 98.386719 14.117188 98.328125 13.835938 98.210938 C 13.554688 98.09375 13.308594 97.929688 13.09375 97.714844 C 12.878906 97.5 12.714844 97.253906 12.597656 96.972656 C 12.480469 96.691406 12.421875 96.402344 12.421875 96.097656 L 12.421875 86.9375 C 12.421875 86.636719 12.480469 86.34375 12.597656 86.0625 C 12.714844 85.78125 12.878906 85.535156 13.09375 85.320312 C 13.308594 85.105469 13.554688 84.941406 13.835938 84.824219 C 14.117188 84.707031 14.40625 84.648438 14.710938 84.648438 L 23.871094 84.648438 C 24.171875 84.648438 24.464844 84.707031 24.746094 84.824219 C 25.027344 84.941406 25.273438 85.105469 25.488281 85.320312 C 25.703125 85.535156 25.867188 85.78125 25.984375 86.0625 C 26.101562 86.34375 26.160156 86.636719 26.160156 86.9375 L 26.160156 96.097656 C 26.160156 96.402344 26.101562 96.691406 25.984375 96.972656 C 25.867188 97.253906 25.703125 97.5 25.488281 97.714844 C 25.273438 97.929688 25.027344 98.09375 24.746094 98.210938 C 24.464844 98.328125 24.171875 98.386719 23.871094 98.386719 Z M 15.476562 95.335938 L 23.105469 95.335938 L 23.105469 87.703125 L 15.476562 87.703125 Z M 15.476562 95.335938 " fill-opacity="1" fill-rule="nonzero"/></svg>